<svg width="347" height="351" viewBox="0 0 347 351" fill="none" xmlns="http://www.w3.org/2000/svg">
<path d="M297.94 195.27C297.282 194.761 296.657 194.21 296.07 193.62C296.07 193.33 296.17 193.04 296.23 192.75L313.35 191.75C311.547 189.474 310.571 186.653 310.58 183.75C310.581 183.111 310.628 182.473 310.72 181.84C301.573 182.022 292.479 183.287 283.63 185.61C277.84 187.11 272.41 189.61 265.89 187.75C239.48 180.28 231.41 149.75 245.01 128.99C246.392 126.741 247.523 124.347 248.38 121.85C248.597 120.953 249.11 120.154 249.835 119.583C250.561 119.012 251.457 118.701 252.38 118.7C260.38 117.81 268.38 116.49 276.38 115.51C277.767 115.454 279.136 115.839 280.29 116.61C289.515 122.375 300.143 125.505 311.02 125.66C310.742 124.541 310.601 123.393 310.6 122.24C310.598 119.89 311.194 117.577 312.33 115.52C309.861 115.647 307.385 115.526 304.94 115.16C300.29 114.35 295.77 112.79 291.2 111.55L291.39 110.45C292.47 109.92 293.59 109.45 294.62 108.85C300.08 105.58 305.56 102.34 310.96 98.98C309.548 98.0844 308.353 96.8873 307.459 95.4747C306.565 94.0621 305.995 92.4691 305.79 90.81C296.361 97.6897 285.687 102.675 274.36 105.49C268.06 107.01 261.62 107.9 255.24 109.07L254.77 108.07C255.37 106.8 255.9 105.5 256.58 104.27C263.532 91.5744 272.407 80.0312 282.89 70.05C280.114 68.0595 277.983 65.299 276.76 62.11C259.915 77.9143 246.927 97.3786 238.8 119C238.179 120.645 237.166 122.114 235.85 123.28C228.34 129.63 217 130.66 209.43 125.87C205.255 123.177 201.993 119.284 200.071 114.702C198.148 110.121 197.657 105.066 198.66 100.2C199.5 96.43 200.07 92.58 200.53 88.74C200.592 87.5457 200.946 86.3849 201.561 85.3596C202.177 84.3344 203.035 83.476 204.06 82.86C217.939 73.8867 228.6 60.7279 234.5 45.29C233.648 45.4951 232.776 45.5992 231.9 45.6C229.27 45.6037 226.721 44.6915 224.69 43.02C221.923 49.866 218.014 56.1926 213.13 61.73C209.96 65.31 206.31 68.48 202.88 71.84C202.222 70.81 201.875 69.6122 201.88 68.39C201.806 55.781 200.211 43.227 197.13 31C196.065 32.2074 194.756 33.1743 193.288 33.8364C191.821 34.4985 190.23 34.8406 188.62 34.84C188.29 34.84 187.97 34.84 187.62 34.79C188.23 37.22 188.81 39.66 189.3 42.11C190.3 47.11 190.8 52.23 191.63 58.11C189.77 57.2 188.77 56.79 187.85 56.25C178.823 51.1584 171.959 42.954 168.54 33.17C166.414 35.2825 163.537 36.4656 160.54 36.46C160.069 36.4599 159.598 36.4299 159.13 36.37C164.19 50.95 174.13 61.37 188.82 67.8C190.97 68.73 191.97 69.8 191.77 72.21C191.35 77.07 191.37 81.97 190.82 86.82C190.45 90.08 190.32 93.94 188.52 96.35C182.62 104.24 175.35 110.79 166.09 114.73C153.63 120.02 140.62 120.11 127.46 118.73C109.23 116.85 93.81 109.4 81.73 95.49C81.3084 94.9076 81.0095 94.2457 80.8514 93.5444C80.6932 92.8431 80.6791 92.1169 80.81 91.41C82.21 85.04 84.06 78.76 85.43 72.41C87.27 63.89 87.49 55.26 87.29 46.62C85.6584 47.4321 83.8553 47.8397 82.033 47.8083C80.2107 47.777 78.4227 47.3077 76.82 46.44C76.71 53.62 76.58 60.8 76.02 67.94C75.59 73.36 73.92 78.67 72.67 84.66C71.6 83.66 71.1 83.26 70.67 82.78C63.2475 73.4973 56.7688 63.4979 51.33 52.93C50.3254 54.2915 49.029 55.4113 47.5358 56.2072C46.0426 57.0031 44.3904 57.455 42.7 57.53C46.22 63.77 49.87 69.95 53.46 76.17C54.1 77.26 54.78 78.33 55.73 79.89C53.5419 80.018 51.3481 80.018 49.16 79.89C44.6666 79.3233 40.19 78.7 35.73 78.02C36.2465 79.3461 36.511 80.7569 36.51 82.18C36.5164 84.0896 36.0345 85.9691 35.11 87.64C43.79 88.58 52.47 89.41 61.11 90.37C62.4786 90.4314 63.7892 90.9409 64.84 91.82C72.84 100.63 80.75 109.49 88.47 118.52C97.08 128.59 105.07 139.1 110.47 151.32C117.81 167.83 114.71 180.68 100.39 191.6C95.45 195.37 90.02 198.48 85.01 202.16C83.5551 203.265 81.8916 204.064 80.1198 204.509C78.3479 204.954 76.5043 205.036 74.7 204.75C70.97 204.25 67.22 203.75 63.53 203.07C55.1592 201.373 47.0764 198.48 39.53 194.48C39.3895 196.213 38.8519 197.89 37.9588 199.381C37.0657 200.872 35.8411 202.138 34.38 203.08C42.2885 207.307 50.7265 210.458 59.47 212.45L66.81 214.06C60.1 219.36 53.81 224.06 47.81 229.15C41.81 234.24 35.81 239.65 29.93 245.03C31.3964 246.04 32.6043 247.381 33.4556 248.944C34.307 250.508 34.7778 252.25 34.83 254.03C40.61 248.75 46.45 243.54 52.27 238.32C53.27 237.43 54.41 236.7 55.98 235.51C54.67 242.51 53.15 248.66 52.45 254.89C51.58 262.7 51 270.55 50.51 278.41C51.4872 278.141 52.4965 278.006 53.51 278.01C55.9759 278.006 58.3751 278.81 60.34 280.3C60.41 265.53 62.9 251.11 66.25 236.73C68.25 228.29 71.52 221.36 79.68 217.5C80.4511 217.061 81.1866 216.563 81.88 216.01C89.18 210.89 97.47 209.37 106.02 210.55C129.13 213.71 145.56 234.71 142.13 256.8C141.945 257.54 141.61 258.235 141.146 258.84C140.681 259.446 140.097 259.95 139.43 260.32C132.69 263.7 125.57 266.38 119.05 270.12C112.05 274.12 105.33 278.76 98.56 283.25C100.292 283.73 101.886 284.615 103.209 285.832C104.532 287.049 105.547 288.564 106.17 290.25C113.77 285.53 121.29 280.69 128.97 276.13C132.72 273.91 136.9 272.41 140.88 270.59L141.88 271.3C141.45 273.13 141.44 275.2 140.54 276.75C133.21 289.21 131.06 302.83 130.54 316.75C132.128 315.993 133.87 315.614 135.629 315.642C137.388 315.669 139.117 316.103 140.68 316.91C140.715 313.69 140.932 310.475 141.33 307.28C142.15 301.54 143.57 295.89 144.74 290.2H145.97C146.58 291.36 147.18 292.53 147.81 293.68C152.41 301.94 158.33 308.77 166.44 313.21C166.831 311.442 167.64 309.793 168.799 308.401C169.957 307.01 171.432 305.915 173.1 305.21C170.731 304.094 168.496 302.712 166.44 301.09C156.12 292.51 151.8 280.99 151.36 267.92C151.33 264.957 152.016 262.031 153.36 259.39C165.36 236.04 194.36 227.99 217.09 241.39C220.09 243.16 221.26 245.33 221.66 248.75C222.378 255.796 223.537 262.789 225.13 269.69C227.335 278.523 230.973 286.934 235.9 294.59C236.817 293.14 238.051 291.916 239.51 291.012C240.968 290.108 242.613 289.546 244.32 289.37C238.902 280.321 235.073 270.411 233 260.07C232.4 257.07 232.11 253.92 231.57 250.07C233.91 251.38 235.36 252.15 236.78 252.99C251.854 261.857 264.645 274.127 274.13 288.82C274.211 286.994 274.734 285.215 275.653 283.635C276.573 282.055 277.862 280.722 279.41 279.75C274.09 273.22 268.63 266.81 263.23 260.34C262.51 259.48 261.74 258.68 260.7 257.54C269.88 255.97 278.47 256.27 287.01 257.17C286.155 255.71 285.639 254.078 285.499 252.392C285.358 250.706 285.598 249.011 286.2 247.43C277.82 247.21 269.41 246.94 261.08 247.55C253.83 248.08 246.99 249.41 240.85 243.91C238.07 241.41 233.22 240.43 231.68 237.51C230.14 234.59 231.1 229.9 231.39 226.03C232.39 212.79 234.62 204.21 252.17 200.86C258.77 199.6 265.6 199.6 272.33 198.97C273.96 198.82 275.76 198.84 277.16 198.13C280.16 196.63 282.53 197.33 285.16 198.92C294.169 204.211 302.322 210.84 309.34 218.58C309.802 216.899 310.645 215.348 311.803 214.045C312.962 212.743 314.405 211.725 316.02 211.07C310.608 205.138 304.543 199.838 297.94 195.27ZM221.24 231.81C195.6 220.51 172.74 223.09 152.12 242.81C149.57 231.48 144.54 221.81 136.12 214.14C127.736 206.439 117.1 201.633 105.78 200.43C107.64 198.78 108.92 197.68 110.18 196.54C117.83 189.62 123.18 181.54 124.18 170.88C124.877 163.004 123.393 155.088 119.89 148C116.6 141.12 112.44 134.66 108.64 128C108.11 127.07 107.5 126.2 106.64 124.84C135.95 131.94 163.89 133.58 188.32 111.92C194.98 132.11 207.98 142.03 230.01 137.92C225.65 159.23 231.08 177.09 249.11 191.28C226.29 195.87 220.81 211.83 221.24 231.81ZM310.58 53.37C310.59 56.3388 309.719 59.2438 308.076 61.7171C306.434 64.1904 304.095 66.1208 301.355 67.2638C298.615 68.4068 295.597 68.711 292.684 68.1378C289.771 67.5647 287.094 66.1401 284.991 64.0443C282.888 61.9485 281.455 59.2759 280.872 56.3648C280.289 53.4537 280.583 50.4352 281.717 47.6913C282.851 44.9475 284.773 42.6019 287.241 40.9515C289.709 39.301 292.611 38.42 295.58 38.42C299.55 38.42 303.357 39.9935 306.169 42.7957C308.981 45.598 310.567 49.4004 310.58 53.37ZM340.47 85.71C340.47 88.6673 339.593 91.5581 337.95 94.0168C336.307 96.4755 333.971 98.3917 331.239 99.5229C328.506 100.654 325.5 100.95 322.6 100.372C319.699 99.7943 317.036 98.3695 314.945 96.2777C312.855 94.1859 311.432 91.5211 310.856 88.6205C310.28 85.7198 310.578 82.7135 311.711 79.982C312.844 77.2504 314.762 74.9162 317.221 73.2747C319.681 71.6331 322.573 70.758 325.53 70.76C327.493 70.76 329.436 71.1468 331.25 71.8982C333.063 72.6496 334.71 73.751 336.098 75.1394C337.485 76.5277 338.585 78.1759 339.336 79.9896C340.086 81.8034 340.471 83.7472 340.47 85.71ZM346.58 121.79C346.592 124.759 345.722 127.665 344.081 130.14C342.44 132.614 340.102 134.546 337.362 135.691C334.622 136.835 331.604 137.141 328.691 136.569C325.777 135.997 323.099 134.573 320.995 132.478C318.891 130.382 317.456 127.71 316.873 124.798C316.289 121.887 316.583 118.868 317.716 116.124C318.85 113.379 320.772 111.033 323.24 109.382C325.708 107.731 328.611 106.85 331.58 106.85C335.548 106.85 339.354 108.422 342.165 111.222C344.977 114.022 346.564 117.822 346.58 121.79ZM346.08 182.66C346.08 185.615 345.204 188.503 343.564 190.961C341.923 193.418 339.591 195.334 336.863 196.467C334.134 197.6 331.13 197.899 328.232 197.326C325.333 196.753 322.669 195.335 320.576 193.249C318.484 191.163 317.056 188.504 316.473 185.607C315.891 182.71 316.18 179.706 317.304 176.973C318.428 174.241 320.336 171.903 322.788 170.254C325.24 168.605 328.125 167.72 331.08 167.71C333.052 167.697 335.006 168.074 336.832 168.819C338.657 169.565 340.317 170.664 341.716 172.053C343.115 173.443 344.225 175.095 344.983 176.916C345.74 178.736 346.13 180.688 346.13 182.66H346.08ZM341.76 226.85C341.75 229.803 340.866 232.686 339.22 235.137C337.573 237.588 335.238 239.496 332.508 240.621C329.778 241.747 326.777 242.039 323.881 241.46C320.986 240.882 318.327 239.459 316.239 237.371C314.151 235.283 312.728 232.624 312.15 229.729C311.571 226.833 311.863 223.832 312.988 221.102C314.114 218.372 316.022 216.037 318.473 214.39C320.924 212.744 323.807 211.86 326.76 211.85C328.73 211.85 330.68 212.238 332.5 212.992C334.32 213.746 335.974 214.851 337.367 216.243C338.759 217.636 339.864 219.29 340.618 221.11C341.372 222.93 341.76 224.88 341.76 226.85ZM319.41 251.85C319.4 254.805 318.515 257.691 316.865 260.143C315.216 262.595 312.877 264.504 310.144 265.627C307.411 266.751 304.406 267.039 301.509 266.456C298.612 265.873 295.953 264.444 293.868 262.35C291.782 260.256 290.364 257.591 289.792 254.692C289.221 251.793 289.521 248.789 290.656 246.06C291.79 243.332 293.708 241.001 296.167 239.361C298.625 237.722 301.515 236.848 304.47 236.85C306.437 236.85 308.385 237.238 310.201 237.993C312.018 238.748 313.667 239.853 315.055 241.247C316.443 242.641 317.543 244.295 318.29 246.114C319.037 247.934 319.418 249.883 319.41 251.85ZM307.52 297.77C307.522 300.727 306.647 303.619 305.005 306.078C303.364 308.538 301.03 310.456 298.298 311.589C295.566 312.722 292.56 313.02 289.66 312.444C286.759 311.868 284.094 310.445 282.002 308.355C279.91 306.264 278.486 303.601 277.908 300.7C277.33 297.8 277.626 294.794 278.757 292.061C279.888 289.329 281.804 286.993 284.263 285.35C286.722 283.707 289.613 282.83 292.57 282.83C296.533 282.83 300.334 284.404 303.138 287.205C305.941 290.007 307.517 293.807 307.52 297.77ZM264.05 309.13C264.04 312.085 263.155 314.97 261.506 317.422C259.857 319.874 257.519 321.782 254.787 322.906C252.054 324.03 249.05 324.319 246.153 323.737C243.256 323.154 240.597 321.726 238.511 319.634C236.425 317.541 235.007 314.877 234.434 311.978C233.861 309.08 234.16 306.076 235.293 303.347C236.426 300.619 238.342 298.287 240.799 296.646C243.257 295.006 246.145 294.13 249.1 294.13C251.068 294.129 253.017 294.516 254.834 295.27C256.652 296.024 258.303 297.13 259.692 298.523C261.081 299.917 262.181 301.572 262.929 303.392C263.677 305.212 264.058 307.162 264.05 309.13ZM200.39 320.48C200.39 323.447 199.51 326.347 197.862 328.814C196.214 331.28 193.871 333.203 191.13 334.338C188.389 335.474 185.373 335.771 182.464 335.192C179.554 334.613 176.881 333.184 174.783 331.087C172.686 328.989 171.257 326.316 170.678 323.406C170.099 320.497 170.396 317.481 171.532 314.74C172.667 311.999 174.59 309.656 177.056 308.008C179.523 306.36 182.423 305.48 185.39 305.48C187.362 305.473 189.315 305.857 191.138 306.608C192.961 307.36 194.617 308.464 196.011 309.859C197.406 311.253 198.51 312.909 199.262 314.732C200.013 316.555 200.397 318.508 200.39 320.48ZM150.29 335.42C150.292 338.378 149.417 341.27 147.775 343.73C146.133 346.19 143.798 348.107 141.066 349.24C138.334 350.373 135.327 350.67 132.426 350.093C129.525 349.517 126.86 348.093 124.769 346.001C122.677 343.91 121.253 341.245 120.677 338.344C120.1 335.443 120.397 332.436 121.53 329.704C122.663 326.972 124.58 324.637 127.04 322.995C129.5 321.353 132.392 320.478 135.35 320.48C137.312 320.48 139.255 320.866 141.067 321.617C142.88 322.368 144.527 323.469 145.914 324.856C147.301 326.243 148.402 327.89 149.153 329.703C149.904 331.515 150.29 333.458 150.29 335.42ZM104.21 299.88C104.212 302.838 103.337 305.729 101.695 308.19C100.053 310.65 97.7179 312.567 94.9857 313.7C92.2536 314.833 89.2468 315.13 86.3458 314.553C83.4449 313.977 80.7801 312.553 78.6887 310.461C76.5973 308.37 75.1733 305.705 74.5967 302.804C74.0202 299.903 74.3171 296.896 75.4499 294.164C76.5827 291.432 78.5004 289.097 80.9605 287.455C83.4205 285.813 86.3123 284.938 89.27 284.94C91.2319 284.94 93.1747 285.326 94.9873 286.077C96.7999 286.828 98.4468 287.928 99.8341 289.316C101.221 290.703 102.322 292.35 103.073 294.163C103.824 295.975 104.21 297.918 104.21 299.88ZM68.13 297.32C68.1201 300.275 67.2346 303.161 65.5855 305.613C63.9363 308.065 61.5974 309.974 58.8642 311.097C56.131 312.221 53.1261 312.509 50.2292 311.926C47.3322 311.343 44.673 309.914 42.5877 307.82C40.5023 305.726 39.0842 303.061 38.5125 300.162C37.9408 297.263 38.2412 294.259 39.3757 291.53C40.5102 288.802 42.428 286.471 44.8867 284.831C47.3454 283.192 50.2349 282.318 53.19 282.32C55.157 282.32 57.1046 282.708 58.9211 283.463C60.7377 284.217 62.3873 285.323 63.7754 286.717C65.1635 288.111 66.2627 289.765 67.01 291.584C67.7573 293.404 68.1379 295.353 68.13 297.32ZM31.65 261.32C31.6401 264.275 30.7549 267.16 29.1062 269.612C27.4575 272.064 25.1192 273.972 22.3865 275.096C19.6539 276.22 16.6496 276.509 13.7528 275.927C10.8561 275.344 8.19698 273.916 6.11118 271.824C4.02538 269.731 2.60651 267.067 2.0337 264.168C1.46089 261.27 1.75984 258.266 2.89283 255.537C4.02581 252.809 5.942 250.477 8.39942 248.836C10.8568 247.196 13.7453 246.32 16.7 246.32C18.6698 246.327 20.6191 246.721 22.4364 247.481C24.2538 248.241 25.9037 249.351 27.292 250.749C28.6802 252.146 29.7796 253.804 30.5273 255.626C31.2751 257.448 31.6565 259.4 31.65 261.37V261.32ZM35.56 188.17C35.5501 191.125 34.6646 194.011 33.0155 196.463C31.3663 198.915 29.0274 200.824 26.2942 201.947C23.561 203.071 20.5562 203.359 17.6592 202.776C14.7622 202.193 12.103 200.764 10.0176 198.67C7.93225 196.576 6.51416 193.911 5.94248 191.012C5.3708 188.113 5.67118 185.109 6.8057 182.38C7.94022 179.652 9.85798 177.321 12.3167 175.681C14.7755 174.042 17.6648 173.168 20.62 173.17C22.5912 173.17 24.543 173.56 26.3628 174.318C28.1826 175.075 29.8345 176.186 31.2232 177.585C32.612 178.984 33.7102 180.644 34.4545 182.469C35.1988 184.294 35.5745 186.249 35.56 188.22V188.17ZM30.88 81.17C30.88 84.1268 30.0032 87.0173 28.3604 89.4758C26.7177 91.9343 24.3829 93.8505 21.6511 94.982C18.9193 96.1135 15.9134 96.4096 13.0134 95.8327C10.1134 95.2559 7.44953 93.832 5.35874 91.7412C3.26794 89.6504 1.8441 86.9866 1.26725 84.0866C0.690399 81.1866 0.986456 78.1806 2.11799 75.4489C3.24952 72.7171 5.1657 70.3823 7.62421 68.7395C10.0827 67.0968 12.9731 66.22 15.93 66.22C17.8953 66.2187 19.8416 66.6051 21.6573 67.3572C23.473 68.1093 25.1225 69.2123 26.5112 70.6029C27.9 71.9935 29.0007 73.6445 29.7504 75.4612C30.5001 77.2779 30.8839 79.2247 30.88 81.19V81.17ZM53.75 38.92C53.7559 41.8781 52.8842 44.7715 51.2451 47.234C49.6059 49.6964 47.2731 51.6172 44.5419 52.7534C41.8107 53.8895 38.8038 54.1899 35.9018 53.6164C32.9998 53.0429 30.3332 51.6215 28.2394 49.5319C26.1456 47.4423 24.7188 44.7785 24.1395 41.8777C23.5602 38.9768 23.8545 35.9693 24.9851 33.2358C26.1158 30.5023 28.0319 28.1657 30.4911 26.5216C32.9503 24.8776 35.8419 24 38.8 24C42.7632 24 46.5643 25.5737 49.3677 28.3752C52.1711 31.1767 53.7473 34.9768 53.75 38.94V38.92ZM97.13 28.13C97.1419 31.0993 96.2722 34.0052 94.6312 36.4798C92.9902 38.9544 90.6518 40.8864 87.9119 42.0309C85.1721 43.1754 82.1542 43.481 79.2406 42.9091C76.3269 42.3371 73.6486 40.9132 71.5448 38.8178C69.441 36.7225 68.0064 34.0498 67.4227 31.1385C66.8391 28.2272 67.1326 25.2081 68.2662 22.4637C69.3997 19.7193 71.3222 17.3731 73.7902 15.7222C76.2582 14.0713 79.1607 13.19 82.13 13.19C86.0979 13.19 89.9041 14.7621 92.7154 17.5622C95.5268 20.3622 97.1141 24.1622 97.13 28.13ZM173.79 18.13C173.78 21.0851 172.895 23.971 171.245 26.4232C169.596 28.8753 167.257 30.7837 164.524 31.9073C161.791 33.0308 158.786 33.3192 155.889 32.7359C152.992 32.1526 150.333 30.7238 148.248 28.63C146.162 26.5363 144.744 23.8714 144.172 20.9721C143.601 18.0728 143.901 15.0691 145.036 12.3405C146.17 9.61179 148.088 7.28056 150.547 5.64124C153.005 4.00191 155.895 3.12805 158.85 3.13001C160.813 3.13263 162.756 3.522 164.568 4.27585C166.38 5.02971 168.026 6.13328 169.412 7.5235C170.797 8.91373 171.895 10.5634 172.643 12.3781C173.391 14.1929 173.774 16.1372 173.77 18.1L173.79 18.13ZM205.23 15.7C205.23 18.6573 204.353 21.5481 202.71 24.0068C201.067 26.4655 198.731 28.3817 195.999 29.5129C193.266 30.6442 190.26 30.9397 187.36 30.362C184.459 29.7843 181.796 28.3595 179.705 26.2677C177.615 24.1759 176.192 21.5112 175.616 18.6105C175.04 15.7098 175.338 12.7035 176.471 9.97196C177.604 7.24038 179.522 4.90621 181.981 3.26468C184.441 1.62316 187.333 0.748025 190.29 0.750003C194.245 0.755295 198.037 2.32893 200.834 5.12583C203.631 7.92272 205.205 11.7146 205.21 15.67L205.23 15.7ZM250.91 27.45C250.912 30.4051 250.038 33.2945 248.399 35.7533C246.759 38.212 244.428 40.1298 241.699 41.2643C238.971 42.3988 235.967 42.6992 233.068 42.1275C230.169 41.5558 227.504 40.1377 225.41 38.0523C223.316 35.9669 221.887 33.3078 221.304 30.4108C220.721 27.5138 221.009 24.509 222.133 21.7758C223.256 19.0426 225.165 16.7037 227.617 15.0545C230.069 13.4053 232.955 12.5199 235.91 12.51C239.873 12.502 243.677 14.0681 246.486 16.864C249.295 19.6599 250.879 23.4568 250.89 27.42L250.91 27.45ZM201.67 174.06V180.75C201.67 181.182 201.585 181.609 201.419 182.008C201.254 182.406 201.011 182.768 200.706 183.073C200.4 183.378 200.037 183.619 199.638 183.783C199.239 183.947 198.812 184.031 198.38 184.03H149.13C148.698 184.031 148.271 183.947 147.872 183.783C147.473 183.619 147.11 183.378 146.804 183.073C146.499 182.768 146.256 182.406 146.091 182.008C145.925 181.609 145.84 181.182 145.84 180.75V174.06C145.84 173.628 145.925 173.201 146.091 172.802C146.256 172.404 146.499 172.042 146.804 171.737C147.11 171.432 147.473 171.191 147.872 171.027C148.271 170.863 148.698 170.779 149.13 170.78H198.36C198.793 170.776 199.223 170.858 199.624 171.021C200.026 171.184 200.391 171.425 200.699 171.73C201.006 172.035 201.251 172.398 201.417 172.798C201.584 173.198 201.67 173.627 201.67 174.06ZM170.59 149.4H176.94C177.851 149.403 178.723 149.766 179.366 150.411C180.009 151.056 180.37 151.929 180.37 152.84L179.81 199.78C179.81 201.68 179.07 202.34 176.98 203.39L170.21 206.49C169.758 206.49 169.31 206.401 168.893 206.227C168.475 206.053 168.096 205.799 167.777 205.478C167.459 205.158 167.206 204.777 167.035 204.359C166.864 203.94 166.777 203.492 166.78 203.04L167.16 152.84C167.16 151.929 167.521 151.056 168.164 150.411C168.807 149.766 169.679 149.403 170.59 149.4Z" fill="white"/>
</svg>
