<svg width="98" height="22" viewBox="0 0 98 22" fill="none" xmlns="http://www.w3.org/2000/svg">
<path d="M18.3964 16.2798V5.65875L9.19805 0.348022L0 5.65875V16.2798L9.19805 21.5906L18.3964 16.2798Z" fill="#EFEFEF"/>
<path d="M18.3964 16.2798V5.65875L9.19805 0.348022L0 5.65875V16.2798L9.19805 21.5906L18.3964 16.2798Z" fill="#0061FF"/>
<path d="M13.5279 11.6571C13.5049 11.6393 13.4832 11.6201 13.4627 11.5996C13.4627 11.5894 13.4662 11.5793 13.4683 11.5692L14.0652 11.5343C14.0024 11.455 13.9683 11.3566 13.9687 11.2554C13.9687 11.2331 13.9703 11.2108 13.9735 11.1888C13.6546 11.1951 13.3375 11.2393 13.0289 11.3202C12.827 11.3725 12.6377 11.4597 12.4103 11.3949C11.4894 11.1344 11.208 10.0698 11.6822 9.34589C11.7304 9.26748 11.7698 9.18398 11.7997 9.09692C11.8073 9.06563 11.8252 9.0378 11.8505 9.01788C11.8758 8.99796 11.907 8.98711 11.9392 8.98708C12.2182 8.95605 12.4971 8.91002 12.7761 8.87584C12.8245 8.87388 12.8722 8.88731 12.9124 8.9142C13.2341 9.11523 13.6047 9.22437 13.984 9.22978C13.9743 9.19076 13.9694 9.15072 13.9693 9.11052C13.9693 9.02856 13.99 8.94793 14.0297 8.87619C13.9436 8.88061 13.8572 8.8764 13.772 8.86364C13.6098 8.83539 13.4522 8.781 13.2929 8.73776L13.2995 8.6994C13.3372 8.68092 13.3762 8.66453 13.4121 8.64361C13.6025 8.52958 13.7936 8.4166 13.9819 8.29944C13.9327 8.26821 13.891 8.22647 13.8598 8.17721C13.8286 8.12795 13.8088 8.0724 13.8016 8.01455C13.4728 8.25445 13.1006 8.42829 12.7057 8.52644C12.486 8.57945 12.2614 8.61048 12.0389 8.65128L12.0225 8.61641C12.0435 8.57213 12.062 8.52679 12.0857 8.4839C12.3281 8.04121 12.6376 7.63869 13.0031 7.29065C12.9063 7.22124 12.832 7.12498 12.7893 7.01378C12.2019 7.56488 11.7491 8.2436 11.4657 8.99754C11.444 9.0549 11.4087 9.10613 11.3628 9.14679C11.1009 9.36821 10.7055 9.40413 10.4415 9.2371C10.296 9.14318 10.1822 9.00743 10.1152 8.84769C10.0481 8.68794 10.031 8.51165 10.066 8.34198C10.0953 8.21052 10.1152 8.07627 10.1312 7.94237C10.1333 7.90073 10.1457 7.86025 10.1672 7.8245C10.1886 7.78874 10.2185 7.75881 10.2543 7.73733C10.7382 7.42443 11.11 6.96559 11.3157 6.42726C11.286 6.43441 11.2556 6.43804 11.2251 6.43807C11.1334 6.4382 11.0445 6.40639 10.9737 6.34811C10.8772 6.58683 10.7409 6.80744 10.5706 7.00053C10.46 7.12536 10.3327 7.2359 10.2131 7.35306C10.1902 7.31715 10.1781 7.27538 10.1783 7.23276C10.1757 6.79309 10.1201 6.35532 10.0126 5.92897C9.97551 5.97107 9.92984 6.00479 9.87868 6.02787C9.82751 6.05096 9.77202 6.06289 9.71589 6.06287C9.70438 6.06287 9.69322 6.06287 9.68102 6.06113C9.70229 6.14586 9.72251 6.23094 9.7396 6.31637C9.77447 6.49073 9.7919 6.66926 9.82085 6.8743C9.75599 6.84257 9.72112 6.82827 9.68904 6.80944C9.37426 6.63189 9.1349 6.34581 9.01569 6.00464C8.94156 6.0783 8.84124 6.11955 8.73673 6.11936C8.72029 6.11936 8.70387 6.11831 8.68757 6.11622C8.86401 6.62463 9.21062 6.98797 9.72286 7.21219C9.79783 7.24462 9.8327 7.28193 9.82573 7.36597C9.81108 7.53544 9.81178 7.7063 9.7926 7.87542C9.7797 7.9891 9.77517 8.1237 9.7124 8.20773C9.50667 8.48286 9.25316 8.71126 8.93026 8.84865C8.49578 9.03311 8.04212 9.03625 7.58323 8.98813C6.94755 8.92257 6.40985 8.66279 5.98862 8.17774C5.97392 8.15744 5.96349 8.13436 5.95798 8.1099C5.95246 8.08544 5.95197 8.06012 5.95654 8.03547C6.00535 7.81335 6.06986 7.59437 6.11764 7.37294C6.1818 7.07585 6.18947 6.77492 6.18249 6.47364C6.1256 6.50196 6.06273 6.51617 5.99918 6.51508C5.93564 6.51398 5.87329 6.49762 5.8174 6.46736C5.81357 6.71773 5.80904 6.9681 5.78951 7.21707C5.77451 7.40607 5.71628 7.59123 5.67269 7.8001C5.63538 7.76523 5.61795 7.75128 5.60295 7.73454C5.34413 7.41086 5.11822 7.06217 4.92856 6.69367C4.89353 6.74115 4.84833 6.78019 4.79626 6.80795C4.74419 6.8357 4.68658 6.85146 4.62763 6.85407C4.75038 7.07166 4.87765 7.28716 5.00284 7.50405C5.02515 7.54206 5.04887 7.57937 5.08199 7.63377C5.00569 7.63823 4.9292 7.63823 4.8529 7.63377C4.69621 7.61401 4.54011 7.59227 4.38459 7.56856C4.4026 7.6148 4.41182 7.664 4.41179 7.71362C4.41201 7.78021 4.39521 7.84575 4.36297 7.90401C4.66564 7.93679 4.96832 7.96573 5.26959 7.99921C5.31732 8.00135 5.36302 8.01912 5.39966 8.04977C5.67862 8.35698 5.95444 8.66593 6.22364 8.9808C6.52387 9.33195 6.80249 9.69843 6.99078 10.1245C7.24673 10.7003 7.13863 11.1483 6.63929 11.5291C6.46704 11.6606 6.27769 11.769 6.10299 11.8973C6.05226 11.9359 5.99425 11.9637 5.93247 11.9793C5.87068 11.9948 5.8064 11.9976 5.74348 11.9877C5.61341 11.9702 5.48265 11.9528 5.35398 11.9291C5.06209 11.8699 4.78024 11.769 4.5171 11.6295C4.5122 11.69 4.49345 11.7484 4.46231 11.8004C4.43117 11.8524 4.38846 11.8966 4.33751 11.9294C4.61329 12.0768 4.90752 12.1867 5.21241 12.2562L5.46835 12.3123C5.23437 12.4971 5.01504 12.661 4.80582 12.8385C4.5966 13.016 4.38738 13.2046 4.18234 13.3922C4.23348 13.4274 4.2756 13.4742 4.30528 13.5287C4.33497 13.5832 4.35139 13.644 4.35321 13.7061C4.55476 13.5219 4.7584 13.3403 4.96134 13.1582C4.99621 13.1272 5.03596 13.1018 5.09071 13.0603C5.04503 13.3044 4.99203 13.5188 4.96762 13.736C4.93728 14.0084 4.91706 14.2821 4.89997 14.5562C4.93404 14.5468 4.96924 14.5421 5.00458 14.5422C5.09057 14.5421 5.17423 14.5701 5.24274 14.6221C5.24518 14.1071 5.33201 13.6042 5.44883 13.1028C5.51857 12.8085 5.63259 12.5668 5.91713 12.4323C5.94402 12.417 5.96967 12.3996 5.99385 12.3803C6.2484 12.2018 6.53747 12.1488 6.83561 12.1899C7.64146 12.3001 8.21438 13.0324 8.09477 13.8026C8.08833 13.8285 8.07664 13.8527 8.06045 13.8738C8.04425 13.8949 8.02389 13.9125 8.00062 13.9254C7.7656 14.0433 7.51732 14.1367 7.28997 14.2671C7.04588 14.4066 6.81155 14.5684 6.57548 14.725C6.63589 14.7417 6.69146 14.7726 6.7376 14.815C6.78374 14.8574 6.81913 14.9102 6.84084 14.9691C7.10586 14.8045 7.36808 14.6357 7.63588 14.4767C7.76665 14.3993 7.9124 14.347 8.05119 14.2835L8.08606 14.3083C8.07106 14.3721 8.07071 14.4443 8.03933 14.4983C7.78373 14.9328 7.70876 15.4077 7.69063 15.8931C7.74601 15.8667 7.80674 15.8535 7.86807 15.8545C7.92941 15.8554 7.98969 15.8706 8.04421 15.8987C8.04544 15.7864 8.05301 15.6743 8.06688 15.5629C8.09547 15.3627 8.14499 15.1657 8.18578 14.9673H8.22868C8.24995 15.0078 8.27087 15.0486 8.29284 15.0887C8.45324 15.3767 8.65967 15.6149 8.94247 15.7697C8.95612 15.708 8.98432 15.6505 9.02472 15.602C9.06512 15.5535 9.11654 15.5153 9.1747 15.4907C9.09209 15.4518 9.01418 15.4036 8.94247 15.347C8.58261 15.0479 8.43197 14.6462 8.41662 14.1904C8.41557 14.0871 8.43949 13.985 8.48636 13.893C8.90481 13.0787 9.91604 12.798 10.7086 13.2653C10.8133 13.327 10.854 13.4027 10.868 13.5219C10.893 13.7676 10.9335 14.0115 10.989 14.2521C11.0659 14.5601 11.1928 14.8534 11.3645 15.1204C11.3965 15.0698 11.4396 15.0272 11.4904 14.9956C11.5413 14.9641 11.5986 14.9445 11.6582 14.9384C11.4692 14.6228 11.3357 14.2773 11.2634 13.9167C11.2425 13.8121 11.2324 13.7022 11.2136 13.568C11.2952 13.6137 11.3457 13.6405 11.3952 13.6698C11.9209 13.979 12.3669 14.4068 12.6976 14.9192C12.7005 14.8555 12.7187 14.7935 12.7507 14.7384C12.7828 14.6833 12.8278 14.6368 12.8817 14.6029C12.6962 14.3752 12.5058 14.1517 12.3175 13.9261C12.2924 13.8961 12.2656 13.8682 12.2293 13.8285C12.5494 13.7737 12.849 13.7842 13.1468 13.8155C13.117 13.7647 13.0989 13.7077 13.0941 13.6489C13.0892 13.5902 13.0975 13.531 13.1185 13.4759C12.8263 13.4682 12.533 13.4588 12.2426 13.4801C11.9898 13.4986 11.7513 13.545 11.5372 13.3532C11.4402 13.266 11.2711 13.2318 11.2174 13.13C11.1637 13.0282 11.1972 12.8646 11.2073 12.7297C11.2422 12.268 11.3199 11.9688 11.9319 11.852C12.162 11.8081 12.4002 11.8081 12.6349 11.7861C12.6917 11.7809 12.7545 11.7816 12.8033 11.7568C12.9079 11.7045 12.9905 11.7289 13.0823 11.7844C13.3964 11.9689 13.6807 12.2 13.9254 12.4699C13.9415 12.4113 13.9709 12.3572 14.0113 12.3118C14.0517 12.2664 14.102 12.2309 14.1583 12.208C13.9696 12.0012 13.7581 11.8164 13.5279 11.6571ZM10.8534 12.9312C9.95928 12.5372 9.16215 12.6272 8.44313 13.3148C8.35421 12.9197 8.17881 12.5825 7.8852 12.3151C7.59284 12.0466 7.22199 11.879 6.82724 11.837C6.8921 11.7795 6.93674 11.7411 6.98067 11.7014C7.24743 11.4601 7.43398 11.1783 7.46885 10.8066C7.49315 10.532 7.4414 10.256 7.31926 10.0088C7.20454 9.76887 7.05948 9.54361 6.92697 9.31137C6.90849 9.27894 6.88722 9.24861 6.85723 9.20118C7.87928 9.44876 8.85355 9.50595 9.70543 8.75066C9.93766 9.45469 10.391 9.8006 11.1592 9.65728C11.0071 10.4004 11.1965 11.0231 11.8252 11.518C11.0294 11.678 10.8384 12.2345 10.8534 12.9312ZM13.9687 6.70901C13.969 6.81254 13.9386 6.91383 13.8813 7.00008C13.8241 7.08632 13.7425 7.15364 13.647 7.19349C13.5514 7.23335 13.4462 7.24395 13.3446 7.22397C13.2431 7.20399 13.1497 7.15431 13.0764 7.08123C13.003 7.00815 12.9531 6.91495 12.9327 6.81344C12.9124 6.71193 12.9227 6.60667 12.9622 6.511C13.0017 6.41532 13.0688 6.33353 13.1548 6.27598C13.2409 6.21843 13.3421 6.18771 13.4456 6.1877C13.584 6.1877 13.7168 6.24257 13.8148 6.34029C13.9129 6.438 13.9682 6.57059 13.9687 6.70901ZM15.0109 7.83671C15.0109 7.93983 14.9803 8.04064 14.923 8.12637C14.8657 8.21211 14.7843 8.27893 14.689 8.31837C14.5938 8.35782 14.4889 8.36812 14.3878 8.34798C14.2866 8.32784 14.1938 8.27815 14.1209 8.20521C14.048 8.13227 13.9984 8.03935 13.9783 7.9382C13.9582 7.83705 13.9686 7.73223 14.0081 7.63698C14.0476 7.54173 14.1145 7.46033 14.2002 7.40309C14.286 7.34585 14.3868 7.31534 14.49 7.31541C14.5584 7.31541 14.6262 7.32889 14.6894 7.35509C14.7526 7.3813 14.8101 7.4197 14.8585 7.46811C14.9068 7.51653 14.9452 7.574 14.9714 7.63724C14.9975 7.70049 15.011 7.76827 15.0109 7.83671ZM15.224 9.09483C15.2244 9.19837 15.1941 9.2997 15.1368 9.38599C15.0796 9.47228 14.9981 9.53965 14.9025 9.57955C14.807 9.61946 14.7018 9.63012 14.6002 9.61018C14.4986 9.59023 14.4052 9.54058 14.3318 9.46752C14.2585 9.39445 14.2084 9.30125 14.1881 9.19974C14.1677 9.09822 14.178 8.99294 14.2175 8.89724C14.257 8.80155 14.3241 8.71973 14.4101 8.66217C14.4962 8.6046 14.5974 8.57387 14.7009 8.57387C14.8393 8.57387 14.972 8.62869 15.07 8.72633C15.1681 8.82397 15.2234 8.95647 15.224 9.09483ZM15.2065 11.2174C15.2065 11.3204 15.176 11.4211 15.1188 11.5068C15.0616 11.5925 14.9803 11.6593 14.8851 11.6988C14.79 11.7383 14.6852 11.7488 14.5842 11.7288C14.4831 11.7088 14.3902 11.6593 14.3172 11.5866C14.2443 11.5139 14.1945 11.4212 14.1742 11.3201C14.1538 11.2191 14.1639 11.1144 14.2031 11.0191C14.2423 10.9238 14.3088 10.8423 14.3943 10.7848C14.4798 10.7273 14.5805 10.6964 14.6835 10.6961C14.7522 10.6956 14.8204 10.7088 14.8841 10.7347C14.9477 10.7607 15.0056 10.7991 15.0544 10.8475C15.1031 10.896 15.1419 10.9536 15.1683 11.0171C15.1947 11.0805 15.2083 11.1486 15.2083 11.2174H15.2065ZM15.0559 12.7583C15.0556 12.8612 15.0247 12.9618 14.9673 13.0473C14.9099 13.1327 14.8285 13.1993 14.7333 13.2385C14.6381 13.2777 14.5334 13.2879 14.4325 13.2677C14.3315 13.2476 14.2388 13.198 14.166 13.1252C14.0932 13.0524 14.0436 12.9596 14.0234 12.8587C14.0032 12.7577 14.0134 12.653 14.0526 12.5579C14.0919 12.4627 14.1584 12.3812 14.2439 12.3238C14.3293 12.2664 14.4299 12.2356 14.5328 12.2352C14.6015 12.2352 14.6696 12.2488 14.733 12.2751C14.7965 12.3013 14.8541 12.3399 14.9027 12.3884C14.9513 12.437 14.9898 12.4947 15.0161 12.5581C15.0424 12.6216 15.0559 12.6896 15.0559 12.7583ZM14.2766 13.63C14.2762 13.7331 14.2453 13.8337 14.1878 13.9192C14.1303 14.0047 14.0488 14.0713 13.9535 14.1105C13.8581 14.1496 13.7534 14.1597 13.6524 14.1393C13.5513 14.119 13.4586 14.0692 13.3859 13.9962C13.3132 13.9232 13.2637 13.8302 13.2438 13.7291C13.2239 13.628 13.2343 13.5233 13.2739 13.4282C13.3134 13.333 13.3803 13.2517 13.4661 13.1946C13.5518 13.1374 13.6525 13.1069 13.7556 13.107C13.8242 13.107 13.8921 13.1205 13.9554 13.1468C14.0188 13.1732 14.0763 13.2117 14.1247 13.2603C14.1731 13.3089 14.2114 13.3666 14.2375 13.43C14.2636 13.4935 14.2768 13.5615 14.2766 13.63ZM13.8619 15.2313C13.862 15.3344 13.8315 15.4352 13.7743 15.521C13.717 15.6068 13.6356 15.6736 13.5404 15.7132C13.4451 15.7527 13.3403 15.763 13.2392 15.743C13.138 15.7229 13.0451 15.6733 12.9721 15.6004C12.8992 15.5275 12.8495 15.4346 12.8294 15.3335C12.8092 15.2323 12.8195 15.1275 12.859 15.0322C12.8984 14.9369 12.9652 14.8555 13.051 14.7982C13.1367 14.7409 13.2375 14.7103 13.3406 14.7103C13.4788 14.7103 13.6114 14.7652 13.7091 14.8629C13.8069 14.9606 13.8619 15.0931 13.8619 15.2313ZM12.3461 15.6274C12.3458 15.7304 12.3149 15.8311 12.2574 15.9166C12.1999 16.002 12.1184 16.0686 12.0231 16.1078C11.9278 16.147 11.8231 16.157 11.7221 16.1367C11.6211 16.1164 11.5283 16.0666 11.4556 15.9937C11.3829 15.9207 11.3334 15.8278 11.3134 15.7267C11.2934 15.6256 11.3039 15.5209 11.3434 15.4258C11.3829 15.3306 11.4497 15.2493 11.5354 15.1921C11.6211 15.1349 11.7218 15.1044 11.8248 15.1044C11.8935 15.1043 11.9614 15.1178 12.0248 15.1441C12.0882 15.1704 12.1457 15.209 12.1942 15.2576C12.2426 15.3062 12.281 15.3638 12.3071 15.4273C12.3331 15.4908 12.3464 15.5588 12.3461 15.6274ZM10.1263 16.0232C10.1263 16.1266 10.0956 16.2278 10.0382 16.3138C9.98068 16.3998 9.89899 16.4668 9.80342 16.5064C9.70784 16.546 9.60267 16.5564 9.50121 16.5362C9.39975 16.516 9.30655 16.4662 9.2334 16.393C9.16025 16.3199 9.11044 16.2267 9.09025 16.1252C9.07007 16.0238 9.08043 15.9186 9.12002 15.823C9.15961 15.7274 9.22665 15.6458 9.31266 15.5883C9.39868 15.5308 9.49981 15.5001 9.60326 15.5001C9.67201 15.4999 9.74013 15.5133 9.80369 15.5395C9.86726 15.5657 9.92501 15.6042 9.97362 15.6528C10.0222 15.7014 10.0608 15.7592 10.087 15.8227C10.1132 15.8863 10.1265 15.9544 10.1263 16.0232ZM8.37931 16.5441C8.37938 16.6473 8.34886 16.7481 8.2916 16.8339C8.23435 16.9197 8.15293 16.9865 8.05766 17.026C7.96239 17.0655 7.85754 17.0759 7.75639 17.0558C7.65523 17.0357 7.56231 16.986 7.48938 16.9131C7.41646 16.8402 7.3668 16.7473 7.3467 16.6461C7.32659 16.5449 7.33695 16.4401 7.37645 16.3448C7.41595 16.2496 7.48282 16.1681 7.5686 16.1109C7.65438 16.0536 7.75522 16.0231 7.85835 16.0232C7.92677 16.0232 7.99451 16.0367 8.05772 16.0628C8.12092 16.089 8.17835 16.1274 8.22673 16.1758C8.2751 16.2241 8.31348 16.2816 8.33966 16.3448C8.36584 16.408 8.37931 16.4757 8.37931 16.5441ZM6.7725 15.3049C6.77257 15.408 6.74204 15.5088 6.68479 15.5946C6.62753 15.6804 6.54612 15.7473 6.45085 15.7868C6.35558 15.8263 6.25073 15.8366 6.14957 15.8165C6.04842 15.7964 5.95549 15.7468 5.88257 15.6738C5.80964 15.6009 5.75998 15.508 5.73988 15.4068C5.71978 15.3057 5.73013 15.2008 5.76963 15.1055C5.80913 15.0103 5.876 14.9289 5.96178 14.8716C6.04756 14.8144 6.1484 14.7838 6.25154 14.7839C6.31995 14.7839 6.38769 14.7974 6.4509 14.8235C6.51411 14.8497 6.57154 14.8881 6.61991 14.9365C6.66829 14.9849 6.70666 15.0423 6.73284 15.1055C6.75902 15.1687 6.7725 15.2364 6.7725 15.3049ZM5.51438 15.2156C5.51404 15.3186 5.48316 15.4193 5.42566 15.5048C5.36815 15.5903 5.28659 15.6568 5.19128 15.696C5.09598 15.7352 4.9912 15.7452 4.89018 15.7249C4.78916 15.7046 4.69644 15.6547 4.62372 15.5817C4.551 15.5087 4.50155 15.4158 4.48162 15.3147C4.46168 15.2136 4.47216 15.1089 4.51172 15.0137C4.55128 14.9186 4.61815 14.8373 4.70389 14.7801C4.78962 14.7229 4.89038 14.6925 4.99342 14.6925C5.06201 14.6925 5.12993 14.7061 5.19327 14.7324C5.25661 14.7587 5.31414 14.7973 5.36254 14.8459C5.41094 14.8945 5.44927 14.9521 5.47533 15.0156C5.50139 15.079 5.51466 15.147 5.51438 15.2156ZM4.24232 13.9603C4.24197 14.0633 4.21111 14.1639 4.15362 14.2494C4.09613 14.3349 4.01459 14.4015 3.9193 14.4406C3.82402 14.4798 3.71925 14.4899 3.61824 14.4696C3.51723 14.4493 3.42451 14.3995 3.35178 14.3265C3.27905 14.2535 3.22957 14.1607 3.20959 14.0596C3.18962 13.9585 3.20005 13.8538 3.23955 13.7586C3.27906 13.6635 3.34588 13.5822 3.43157 13.5249C3.51726 13.4677 3.61798 13.4372 3.72101 13.4372C3.7897 13.4374 3.85767 13.4512 3.92104 13.4777C3.98441 13.5042 4.04195 13.5429 4.09035 13.5916C4.13876 13.6404 4.1771 13.6982 4.20317 13.7617C4.22925 13.8253 4.24255 13.8933 4.24232 13.962V13.9603ZM4.37866 11.4095C4.37832 11.5126 4.34744 11.6132 4.28993 11.6987C4.23243 11.7842 4.15087 11.8507 4.05556 11.8899C3.96026 11.9291 3.85548 11.9392 3.75446 11.9188C3.65344 11.8985 3.56071 11.8487 3.488 11.7756C3.41528 11.7026 3.36583 11.6097 3.34589 11.5086C3.32596 11.4075 3.33643 11.3028 3.376 11.2076C3.41556 11.1125 3.48243 11.0312 3.56817 10.974C3.6539 10.9169 3.75466 10.8864 3.8577 10.8865C3.92644 10.8865 3.9945 10.9001 4.05795 10.9265C4.12141 10.9529 4.17901 10.9916 4.22744 11.0404C4.27586 11.0892 4.31416 11.1471 4.34011 11.2107C4.36607 11.2744 4.37917 11.3425 4.37866 11.4113V11.4095ZM4.21547 7.6784C4.21547 7.78151 4.18489 7.8823 4.12761 7.96803C4.07033 8.05376 3.98891 8.12057 3.89366 8.16003C3.7984 8.19949 3.69358 8.20981 3.59246 8.18969C3.49133 8.16958 3.39845 8.11993 3.32554 8.04702C3.25263 7.97412 3.20298 7.88123 3.18287 7.78011C3.16275 7.67898 3.17308 7.57416 3.21253 7.47891C3.25199 7.38365 3.31881 7.30223 3.40454 7.24495C3.49027 7.18767 3.59105 7.15709 3.69416 7.15709C3.76269 7.15705 3.83056 7.17052 3.89387 7.19675C3.95719 7.22298 4.0147 7.26143 4.06313 7.30993C4.11156 7.35842 4.14994 7.41599 4.17608 7.47934C4.20222 7.54269 4.21561 7.61057 4.21547 7.6791V7.6784ZM5.01295 6.20514C5.01316 6.30829 4.98276 6.40918 4.9256 6.49505C4.86845 6.58091 4.7871 6.64789 4.69186 6.68751C4.59662 6.72713 4.49177 6.7376 4.39058 6.7176C4.28939 6.69761 4.1964 6.64804 4.12339 6.57518C4.05038 6.50231 4.00063 6.40943 3.98043 6.30827C3.96023 6.20712 3.97049 6.10225 4.00992 6.00693C4.04934 5.91161 4.11616 5.83014 4.20191 5.77281C4.28766 5.71548 4.38849 5.68488 4.49164 5.68488C4.62984 5.68488 4.76238 5.73975 4.86014 5.83744C4.95789 5.93513 5.01286 6.06764 5.01295 6.20584V6.20514ZM6.52562 5.82889C6.52603 5.93243 6.49571 6.03376 6.43848 6.12005C6.38126 6.20634 6.29972 6.27371 6.20418 6.31362C6.10864 6.35353 6.00341 6.36418 5.90181 6.34424C5.80021 6.32429 5.70682 6.27464 5.63346 6.20158C5.5601 6.12851 5.51007 6.03532 5.48972 5.9338C5.46937 5.83228 5.4796 5.727 5.51913 5.63131C5.55866 5.53561 5.6257 5.45379 5.71176 5.39623C5.79782 5.33866 5.89903 5.30793 6.00256 5.30793C6.14092 5.30793 6.27365 5.36275 6.37168 5.46039C6.46971 5.55803 6.52506 5.69053 6.52562 5.82889ZM9.19876 5.48019C9.19842 5.58323 9.16754 5.68387 9.11003 5.76937C9.05253 5.85488 8.97097 5.92142 8.87566 5.9606C8.78036 5.99978 8.67558 6.00984 8.57456 5.9895C8.47354 5.96916 8.38082 5.91934 8.3081 5.84633C8.23538 5.77332 8.18593 5.68039 8.16599 5.57929C8.14606 5.4782 8.15653 5.37346 8.1961 5.27831C8.23566 5.18316 8.30253 5.10187 8.38827 5.0447C8.474 4.98754 8.57476 4.95707 8.6778 4.95714C8.74624 4.95723 8.814 4.97081 8.87719 4.99709C8.94039 5.02338 8.99778 5.06186 9.0461 5.11034C9.09441 5.15882 9.1327 5.21634 9.15878 5.27962C9.18485 5.3429 9.1982 5.4107 9.19807 5.47914L9.19876 5.48019ZM10.2951 5.39545C10.2951 5.49857 10.2645 5.59938 10.2072 5.68511C10.1499 5.77085 10.0685 5.83767 9.97319 5.87711C9.87791 5.91656 9.77307 5.92686 9.67194 5.90672C9.57081 5.88658 9.47792 5.83689 9.40503 5.76395C9.33213 5.69101 9.28251 5.59809 9.26244 5.49694C9.24236 5.3958 9.25273 5.29097 9.29224 5.19572C9.33176 5.10047 9.39863 5.01907 9.4844 4.96183C9.57018 4.90459 9.671 4.87408 9.77412 4.87415C9.91204 4.87433 10.0443 4.9292 10.1418 5.02673C10.2393 5.12426 10.2942 5.25648 10.2944 5.39441L10.2951 5.39545ZM11.8879 5.80518C11.888 5.90822 11.8575 6.00898 11.8004 6.09471C11.7432 6.18045 11.6619 6.24732 11.5668 6.28688C11.4716 6.32645 11.3669 6.33692 11.2658 6.31699C11.1647 6.29705 11.0718 6.2476 10.9988 6.17488C10.9257 6.10217 10.8759 6.00944 10.8556 5.90842C10.8352 5.8074 10.8453 5.70262 10.8845 5.60732C10.9237 5.51201 10.9902 5.43045 11.0757 5.37295C11.1612 5.31544 11.2619 5.28456 11.3649 5.28422C11.5031 5.28394 11.6357 5.33855 11.7337 5.43604C11.8317 5.53354 11.8869 5.66593 11.8873 5.80413L11.8879 5.80518ZM10.1709 10.9175V11.1508C10.1709 11.1658 10.168 11.1807 10.1622 11.1946C10.1564 11.2085 10.148 11.2211 10.1373 11.2318C10.1267 11.2424 10.114 11.2508 10.1001 11.2565C10.0862 11.2623 10.0713 11.2652 10.0562 11.2651H8.33886C8.32382 11.2652 8.3089 11.2623 8.29499 11.2565C8.28107 11.2508 8.26842 11.2424 8.25776 11.2318C8.24711 11.2211 8.23865 11.2085 8.23288 11.1946C8.22711 11.1807 8.22414 11.1658 8.22414 11.1508V10.9175C8.22414 10.9024 8.22711 10.8875 8.23288 10.8736C8.23865 10.8597 8.24711 10.8471 8.25776 10.8365C8.26842 10.8259 8.28107 10.8175 8.29499 10.8117C8.3089 10.806 8.32382 10.8031 8.33886 10.8031H10.0555C10.0706 10.803 10.0856 10.8058 10.0996 10.8115C10.1136 10.8172 10.1263 10.8256 10.1371 10.8362C10.1478 10.8469 10.1563 10.8595 10.1621 10.8735C10.1679 10.8874 10.1709 10.9024 10.1709 10.9175ZM9.08718 10.0576H9.3086C9.34036 10.0577 9.37078 10.0704 9.3932 10.0928C9.41562 10.1153 9.42821 10.1458 9.42821 10.1775L9.40868 11.8144C9.40868 11.8806 9.38288 11.9036 9.31 11.9402L9.07393 12.0483C9.05816 12.0483 9.04255 12.0452 9.02799 12.0392C9.01344 12.0331 9.00022 12.0242 8.98911 12.0131C8.97799 12.0019 8.9692 11.9886 8.96323 11.974C8.95726 11.9594 8.95423 11.9438 8.95432 11.928L8.96757 10.1775C8.96757 10.1458 8.98016 10.1153 9.00258 10.0928C9.025 10.0704 9.05543 10.0577 9.08718 10.0576Z" fill="white"/>
<g style="mix-blend-mode:multiply" opacity="0.24">
<g style="mix-blend-mode:multiply" opacity="0.24">
<path style="mix-blend-mode:multiply" opacity="0.24" d="M18.6338 5.45683V16.434L9.18262 21.8904V0L18.6338 5.45683Z" fill="url(#paint0_linear_908_195)"/>
</g>
</g>
<path d="M24.6338 1.78625H28.1942L37.1725 13.4735V1.78625H40.6812V19.8461H37.3789L28.1684 7.7718V19.8461H24.6338V1.78625Z" fill="#0B69FF"/>
<path d="M55.7747 18.1691C54.9491 18.8399 54.0977 19.3301 53.2205 19.6397C52.3605 19.9493 51.3973 20.1041 50.331 20.1041C49.3162 20.1041 48.3616 19.9235 47.4672 19.5623C46.59 19.2011 45.8246 18.7109 45.171 18.0917C44.5346 17.4725 44.0272 16.7415 43.6488 15.8987C43.2876 15.0387 43.107 14.1185 43.107 13.1382C43.107 12.175 43.279 11.272 43.623 10.4292C43.9842 9.56919 44.4744 8.82959 45.0936 8.2104C45.7128 7.574 46.4438 7.07521 47.2866 6.71401C48.1466 6.35281 49.0582 6.17221 50.0214 6.17221C50.9674 6.17221 51.8445 6.36141 52.6529 6.73981C53.4785 7.10101 54.1837 7.5998 54.7685 8.2362C55.3705 8.87259 55.8349 9.63798 56.1617 10.5324C56.5057 11.4096 56.6777 12.3642 56.6777 13.3961V14.3249H46.6674C46.9082 15.1677 47.3726 15.8471 48.0606 16.3631C48.7486 16.8791 49.557 17.1371 50.4858 17.1371C51.0706 17.1371 51.6209 17.0425 52.1369 16.8533C52.6529 16.6641 53.0915 16.3975 53.4527 16.0535L55.7747 18.1691ZM49.944 9.08759C49.1356 9.08759 48.439 9.33699 47.8542 9.83578C47.2694 10.3174 46.8652 10.971 46.6416 11.7966H53.2205C52.9969 11.0054 52.5841 10.3604 51.9821 9.86158C51.3973 9.34559 50.718 9.08759 49.944 9.08759Z" fill="#0B69FF"/>
<path d="M58.8433 19.8461V6.40441H62.3778V7.875C62.8078 7.29021 63.3238 6.85161 63.9258 6.55921C64.545 6.24961 65.2244 6.09482 65.964 6.09482C66.308 6.11202 66.5918 6.14642 66.8154 6.19801C67.0562 6.23241 67.2626 6.30122 67.4346 6.40441V9.50039C67.1766 9.37999 66.8928 9.29399 66.5832 9.24239C66.2736 9.17359 65.9554 9.13919 65.6286 9.13919C64.9406 9.13919 64.3042 9.31119 63.7194 9.65518C63.1518 9.99918 62.7046 10.498 62.3778 11.1516V19.8461H58.8433Z" fill="#0B69FF"/>
<path d="M74.2395 19.8461L68.4603 6.40441H72.3045L75.9939 15.3569L79.6574 6.40441H83.4242L77.6451 19.8461H74.2395Z" fill="#0B69FF"/>
<path d="M96.364 18.1691C95.5384 18.8399 94.687 19.3301 93.8098 19.6397C92.9498 19.9493 91.9866 20.1041 90.9202 20.1041C89.9054 20.1041 88.9509 19.9235 88.0565 19.5623C87.1793 19.2011 86.4139 18.7109 85.7603 18.0917C85.1239 17.4725 84.6165 16.7415 84.2381 15.8987C83.8769 15.0387 83.6963 14.1185 83.6963 13.1382C83.6963 12.175 83.8683 11.272 84.2123 10.4292C84.5735 9.56919 85.0637 8.82959 85.6829 8.2104C86.3021 7.574 87.0331 7.07521 87.8759 6.71401C88.7359 6.35281 89.6475 6.17221 90.6106 6.17221C91.5566 6.17221 92.4338 6.36141 93.2422 6.73981C94.0678 7.10101 94.773 7.5998 95.3578 8.2362C95.9598 8.87259 96.4242 9.63798 96.751 10.5324C97.095 11.4096 97.267 12.3642 97.267 13.3961V14.3249H87.2567C87.4975 15.1677 87.9619 15.8471 88.6499 16.3631C89.3379 16.8791 90.1462 17.1371 91.075 17.1371C91.6598 17.1371 92.2102 17.0425 92.7262 16.8533C93.2422 16.6641 93.6808 16.3975 94.042 16.0535L96.364 18.1691ZM90.5332 9.08759C89.7249 9.08759 89.0283 9.33699 88.4435 9.83578C87.8587 10.3174 87.4545 10.971 87.2309 11.7966H93.8098C93.5862 11.0054 93.1734 10.3604 92.5714 9.86158C91.9866 9.34559 91.3072 9.08759 90.5332 9.08759Z" fill="#0B69FF"/>
<defs>
<linearGradient id="paint0_linear_908_195" x1="9.18262" y1="10.9454" x2="18.6338" y2="10.9454" gradientUnits="userSpaceOnUse">
<stop stop-color="#3A1A1A" stop-opacity="0.2"/>
<stop offset="0.15" stop-color="#462929" stop-opacity="0.22"/>
<stop offset="0.37" stop-color="#695050" stop-opacity="0.27"/>
<stop offset="0.64" stop-color="#A19292" stop-opacity="0.36"/>
<stop offset="0.95" stop-color="#EEECEC" stop-opacity="0.48"/>
<stop offset="1" stop-color="#FCFCFC" stop-opacity="0.5"/>
</linearGradient>
</defs>
</svg>
