<svg width="49" height="48" viewBox="0 0 49 48" fill="none" xmlns="http://www.w3.org/2000/svg">
<path fill-rule="evenodd" clip-rule="evenodd" d="M44 24C44 34.7696 35.2696 43.5 24.5 43.5C13.7304 43.5 5 34.7696 5 24C5 13.2304 13.7304 4.5 24.5 4.5C35.2696 4.5 44 13.2304 44 24ZM48.5 24C48.5 37.2548 37.7548 48 24.5 48C11.2452 48 0.5 37.2548 0.5 24C0.5 10.7452 11.2452 0 24.5 0C37.7548 0 48.5 10.7452 48.5 24ZM23.1968 31.5844L35.0976 19.5844L31.9024 16.4156L21.5796 26.8245L17.0779 22.396L13.9221 25.604L20.0213 31.604L21.6188 33.1755L23.1968 31.5844Z" fill="#171F46"/>
</svg>
