<svg width="49" height="48" viewBox="0 0 49 48" fill="none" xmlns="http://www.w3.org/2000/svg">
<path fill-rule="evenodd" clip-rule="evenodd" d="M24.5 44.25C35.6838 44.25 44.75 35.1838 44.75 24C44.75 12.8162 35.6838 3.75 24.5 3.75C13.3162 3.75 4.25 12.8162 4.25 24C4.25 35.1838 13.3162 44.25 24.5 44.25ZM24.5 48C37.7548 48 48.5 37.2548 48.5 24C48.5 10.7452 37.7548 0 24.5 0C11.2452 0 0.5 10.7452 0.5 24C0.5 37.2548 11.2452 48 24.5 48ZM21.6199 11.9976C21.5545 10.3618 22.8629 9 24.5 9C26.1371 9 27.4455 10.3618 27.3801 11.9976L26.8399 25.5018C26.7897 26.7577 25.7569 27.75 24.5 27.75C23.2431 27.75 22.2103 26.7577 22.1601 25.5018L21.6199 11.9976ZM24.4253 31.5C22.5613 31.5 21.0503 33.011 21.0503 34.875C21.0503 36.739 22.5613 38.25 24.4253 38.25C26.2893 38.25 27.8003 36.739 27.8003 34.875C27.8003 33.011 26.2893 31.5 24.4253 31.5Z" fill="#FFB800"/>
</svg>
