<svg width="14" height="14" viewBox="0 0 14 14" fill="none" xmlns="http://www.w3.org/2000/svg">
<path fill-rule="evenodd" clip-rule="evenodd" d="M1 0C0.447715 0 0 0.447716 0 1V13C0 13.5523 0.447716 14 1 14H13C13.5523 14 14 13.5523 14 13V4.41421C14 4.149 13.8946 3.89464 13.7071 3.70711L10.2929 0.292893C10.1054 0.105357 9.851 0 9.58579 0H1ZM3.75 3.5C3.33579 3.5 3 3.83579 3 4.25C3 4.66421 3.33579 5 3.75 5H10.25C10.6642 5 11 4.66421 11 4.25C11 3.83579 10.6642 3.5 10.25 3.5H3.75ZM3.75 6.5C3.33579 6.5 3 6.83579 3 7.25C3 7.66421 3.33579 8 3.75 8H10.25C10.6642 8 11 7.66421 11 7.25C11 6.83579 10.6642 6.5 10.25 6.5H3.75ZM3 10.25C3 9.83579 3.33579 9.5 3.75 9.5H10.25C10.6642 9.5 11 9.83579 11 10.25C11 10.6642 10.6642 11 10.25 11H3.75C3.33579 11 3 10.6642 3 10.25Z" fill="white" fill-opacity="0.7"/>
</svg>
