<svg width="128" height="243" viewBox="0 0 128 243" fill="none" xmlns="http://www.w3.org/2000/svg">
<circle cx="6.5" cy="6.5" r="6.5" fill="#AACD99" fill-opacity="0.61"/>
<circle cx="6.5" cy="29.5" r="6.5" fill="#AACD99" fill-opacity="0.61"/>
<circle cx="6.5" cy="52.5" r="6.5" fill="#AACD99" fill-opacity="0.61"/>
<circle cx="6.5" cy="75.5" r="6.5" fill="#AACD99" fill-opacity="0.61"/>
<circle cx="6.5" cy="98.5" r="6.5" fill="#AACD99" fill-opacity="0.61"/>
<circle cx="6.5" cy="121.5" r="6.5" fill="#AACD99" fill-opacity="0.61"/>
<circle cx="6.5" cy="144.5" r="6.5" fill="#AACD99" fill-opacity="0.61"/>
<circle cx="6.5" cy="167.5" r="6.5" fill="#AACD99" fill-opacity="0.61"/>
<circle cx="6.5" cy="190.5" r="6.5" fill="#AACD99" fill-opacity="0.61"/>
<circle cx="6.5" cy="213.5" r="6.5" fill="#AACD99" fill-opacity="0.61"/>
<circle cx="6.5" cy="236.5" r="6.5" fill="#AACD99" fill-opacity="0.61"/>
<circle cx="29.5" cy="6.5" r="6.5" fill="#AACD99" fill-opacity="0.61"/>
<circle cx="29.5" cy="29.5" r="6.5" fill="#AACD99" fill-opacity="0.61"/>
<circle cx="29.5" cy="52.5" r="6.5" fill="#AACD99" fill-opacity="0.61"/>
<circle cx="29.5" cy="75.5" r="6.5" fill="#AACD99" fill-opacity="0.61"/>
<circle cx="29.5" cy="98.5" r="6.5" fill="#AACD99" fill-opacity="0.61"/>
<circle cx="29.5" cy="121.5" r="6.5" fill="#AACD99" fill-opacity="0.61"/>
<circle cx="29.5" cy="144.5" r="6.5" fill="#AACD99" fill-opacity="0.61"/>
<circle cx="29.5" cy="167.5" r="6.5" fill="#AACD99" fill-opacity="0.61"/>
<circle cx="29.5" cy="190.5" r="6.5" fill="#AACD99" fill-opacity="0.61"/>
<circle cx="29.5" cy="213.5" r="6.5" fill="#AACD99" fill-opacity="0.61"/>
<circle cx="29.5" cy="236.5" r="6.5" fill="#AACD99" fill-opacity="0.61"/>
<circle cx="52.5" cy="6.5" r="6.5" fill="#AACD99" fill-opacity="0.61"/>
<circle cx="52.5" cy="29.5" r="6.5" fill="#AACD99" fill-opacity="0.61"/>
<circle cx="52.5" cy="52.5" r="6.5" fill="#AACD99" fill-opacity="0.61"/>
<circle cx="52.5" cy="75.5" r="6.5" fill="#AACD99" fill-opacity="0.61"/>
<circle cx="52.5" cy="98.5" r="6.5" fill="#AACD99" fill-opacity="0.61"/>
<circle cx="52.5" cy="121.5" r="6.5" fill="#AACD99" fill-opacity="0.61"/>
<circle cx="52.5" cy="144.5" r="6.5" fill="#AACD99" fill-opacity="0.61"/>
<circle cx="52.5" cy="167.5" r="6.5" fill="#AACD99" fill-opacity="0.61"/>
<circle cx="52.5" cy="190.5" r="6.5" fill="#AACD99" fill-opacity="0.61"/>
<circle cx="52.5" cy="213.5" r="6.5" fill="#AACD99" fill-opacity="0.61"/>
<circle cx="52.5" cy="236.5" r="6.5" fill="#AACD99" fill-opacity="0.61"/>
<circle cx="75.5" cy="6.5" r="6.5" fill="#AACD99" fill-opacity="0.61"/>
<circle cx="75.5" cy="29.5" r="6.5" fill="#AACD99" fill-opacity="0.61"/>
<circle cx="75.5" cy="52.5" r="6.5" fill="#AACD99" fill-opacity="0.61"/>
<circle cx="75.5" cy="75.5" r="6.5" fill="#AACD99" fill-opacity="0.61"/>
<circle cx="75.5" cy="98.5" r="6.5" fill="#AACD99" fill-opacity="0.61"/>
<circle cx="75.5" cy="121.5" r="6.5" fill="#AACD99" fill-opacity="0.61"/>
<circle cx="75.5" cy="144.5" r="6.5" fill="#AACD99" fill-opacity="0.61"/>
<circle cx="75.5" cy="167.5" r="6.5" fill="#AACD99" fill-opacity="0.61"/>
<circle cx="75.5" cy="190.5" r="6.5" fill="#AACD99" fill-opacity="0.61"/>
<circle cx="75.5" cy="213.5" r="6.5" fill="#AACD99" fill-opacity="0.61"/>
<circle cx="75.5" cy="236.5" r="6.5" fill="#AACD99" fill-opacity="0.61"/>
<circle cx="98.5" cy="6.5" r="6.5" fill="#AACD99" fill-opacity="0.61"/>
<circle cx="98.5" cy="29.5" r="6.5" fill="#AACD99" fill-opacity="0.61"/>
<circle cx="98.5" cy="52.5" r="6.5" fill="#AACD99" fill-opacity="0.61"/>
<circle cx="98.5" cy="75.5" r="6.5" fill="#AACD99" fill-opacity="0.61"/>
<circle cx="98.5" cy="98.5" r="6.5" fill="#AACD99" fill-opacity="0.61"/>
<circle cx="98.5" cy="121.5" r="6.5" fill="#AACD99" fill-opacity="0.61"/>
<circle cx="98.5" cy="144.5" r="6.5" fill="#AACD99" fill-opacity="0.61"/>
<circle cx="98.5" cy="167.5" r="6.5" fill="#AACD99" fill-opacity="0.61"/>
<circle cx="98.5" cy="190.5" r="6.5" fill="#AACD99" fill-opacity="0.61"/>
<circle cx="98.5" cy="213.5" r="6.5" fill="#AACD99" fill-opacity="0.61"/>
<circle cx="98.5" cy="236.5" r="6.5" fill="#AACD99" fill-opacity="0.61"/>
<circle cx="121.5" cy="6.5" r="6.5" fill="#AACD99" fill-opacity="0.61"/>
<circle cx="121.5" cy="29.5" r="6.5" fill="#AACD99" fill-opacity="0.61"/>
<circle cx="121.5" cy="52.5" r="6.5" fill="#AACD99" fill-opacity="0.61"/>
<circle cx="121.5" cy="75.5" r="6.5" fill="#AACD99" fill-opacity="0.61"/>
<circle cx="121.5" cy="98.5" r="6.5" fill="#AACD99" fill-opacity="0.61"/>
<circle cx="121.5" cy="121.5" r="6.5" fill="#AACD99" fill-opacity="0.61"/>
<circle cx="121.5" cy="144.5" r="6.5" fill="#AACD99" fill-opacity="0.61"/>
<circle cx="121.5" cy="167.5" r="6.5" fill="#AACD99" fill-opacity="0.61"/>
<circle cx="121.5" cy="190.5" r="6.5" fill="#AACD99" fill-opacity="0.61"/>
<circle cx="121.5" cy="213.5" r="6.5" fill="#AACD99" fill-opacity="0.61"/>
<circle cx="121.5" cy="236.5" r="6.5" fill="#AACD99" fill-opacity="0.61"/>
</svg>
