<svg width="98" height="22" viewBox="0 0 98 22" fill="none" xmlns="http://www.w3.org/2000/svg">
<path d="M18.3964 16.2795V5.65838L9.19805 0.347656L0 5.65838V16.2795L9.19805 21.5902L18.3964 16.2795Z" fill="#EFEFEF"/>
<path d="M18.3964 16.2795V5.65838L9.19805 0.347656L0 5.65838V16.2795L9.19805 21.5902L18.3964 16.2795Z" fill="#0061FF"/>
<path d="M13.5275 11.657C13.5046 11.6392 13.4828 11.62 13.4623 11.5994C13.4623 11.5893 13.4658 11.5792 13.4679 11.5691L14.0649 11.5342C14.002 11.4549 13.968 11.3565 13.9683 11.2553C13.9683 11.233 13.97 11.2107 13.9732 11.1887C13.6542 11.195 13.3371 11.2391 13.0285 11.3201C12.8266 11.3724 12.6373 11.4596 12.4099 11.3947C11.489 11.1343 11.2076 10.0697 11.6818 9.34577C11.7301 9.26735 11.7695 9.18386 11.7994 9.0968C11.8069 9.06551 11.8248 9.03767 11.8501 9.01775C11.8754 8.99784 11.9066 8.98699 11.9388 8.98696C12.2178 8.95592 12.4968 8.9099 12.7757 8.87572C12.8241 8.87376 12.8718 8.88719 12.9121 8.91408C13.2338 9.11511 13.6043 9.22424 13.9836 9.22965C13.9739 9.19064 13.969 9.1506 13.969 9.1104C13.9689 9.02844 13.9897 8.94781 14.0293 8.87607C13.9432 8.88049 13.8569 8.87628 13.7716 8.86352C13.6095 8.83527 13.4519 8.78087 13.2925 8.73764L13.2991 8.69928C13.3368 8.6808 13.3758 8.66441 13.4118 8.64349C13.6021 8.52946 13.7932 8.41648 13.9815 8.29932C13.9323 8.26809 13.8906 8.22635 13.8594 8.17709C13.8283 8.12783 13.8084 8.07228 13.8013 8.01443C13.4725 8.25433 13.1003 8.42817 12.7053 8.52632C12.4856 8.57933 12.261 8.61036 12.0386 8.65116L12.0222 8.61629C12.0431 8.572 12.0616 8.52667 12.0853 8.48378C12.3277 8.04109 12.6372 7.63857 13.0027 7.29052C12.9059 7.22111 12.8316 7.12486 12.789 7.01366C12.2016 7.56475 11.7487 8.24348 11.4653 8.99742C11.4436 9.05478 11.4083 9.106 11.3624 9.14666C11.1006 9.36809 10.7051 9.404 10.4412 9.23698C10.2956 9.14306 10.1818 9.00731 10.1148 8.84756C10.0478 8.68781 10.0306 8.51153 10.0656 8.34186C10.0949 8.2104 10.1148 8.07615 10.1308 7.94225C10.133 7.9006 10.1453 7.86013 10.1668 7.82437C10.1883 7.78862 10.2182 7.75869 10.2539 7.73721C10.7379 7.42431 11.1096 6.96546 11.3154 6.42714C11.2857 6.43429 11.2552 6.43792 11.2247 6.43795C11.133 6.43808 11.0441 6.40627 10.9733 6.34798C10.8768 6.58671 10.7405 6.80731 10.5702 7.00041C10.4596 7.12524 10.3324 7.23578 10.2128 7.35294C10.1898 7.31703 10.1777 7.27526 10.1779 7.23264C10.1753 6.79296 10.1197 6.3552 10.0123 5.92885C9.97514 5.97095 9.92948 6.00466 9.87831 6.02775C9.82715 6.05084 9.77165 6.06277 9.71552 6.06275C9.70401 6.06275 9.69285 6.06275 9.68065 6.061C9.70192 6.14574 9.72215 6.23082 9.73923 6.31625C9.7741 6.4906 9.79154 6.66914 9.82048 6.87417C9.75562 6.84244 9.72075 6.82815 9.68867 6.80932C9.37389 6.63177 9.13453 6.34568 9.01533 6.00451C8.94119 6.07818 8.84087 6.11943 8.73637 6.11924C8.71993 6.11923 8.70351 6.11819 8.6872 6.1161C8.86364 6.6245 9.21025 6.98785 9.72249 7.21207C9.79747 7.2445 9.83234 7.28181 9.82536 7.36584C9.81072 7.53531 9.81141 7.70618 9.79223 7.8753C9.77933 7.98897 9.7748 8.12357 9.71203 8.20761C9.5063 8.48274 9.25279 8.71114 8.9299 8.84852C8.49541 9.03299 8.04175 9.03613 7.58286 8.988C6.94718 8.92245 6.40948 8.66267 5.98825 8.17762C5.97355 8.15731 5.96313 8.13423 5.95761 8.10978C5.9521 8.08532 5.95161 8.06 5.95617 8.03535C6.00499 7.81323 6.0695 7.59424 6.11727 7.37282C6.18143 7.07572 6.1891 6.7748 6.18213 6.47352C6.12523 6.50183 6.06236 6.51605 5.99882 6.51495C5.93527 6.51386 5.87293 6.4975 5.81704 6.46724C5.8132 6.71761 5.80867 6.96798 5.78914 7.21695C5.77415 7.40595 5.71591 7.59111 5.67233 7.79998C5.63502 7.76511 5.61758 7.75116 5.60259 7.73442C5.34376 7.41073 5.11785 7.06205 4.9282 6.69355C4.89317 6.74102 4.84796 6.78007 4.79589 6.80782C4.74383 6.83558 4.68621 6.85134 4.62727 6.85395C4.75001 7.07154 4.87729 7.28704 5.00247 7.50393C5.02479 7.54194 5.0485 7.57925 5.08163 7.63365C5.00533 7.63811 4.92883 7.63811 4.85253 7.63365C4.69585 7.61389 4.53974 7.59215 4.38422 7.56844C4.40223 7.61468 4.41146 7.66388 4.41142 7.7135C4.41165 7.78009 4.39484 7.84563 4.3626 7.90389C4.66528 7.93667 4.96795 7.96561 5.26923 7.99909C5.31695 8.00123 5.36265 8.01899 5.39929 8.04965C5.67825 8.35685 5.95408 8.6658 6.22327 8.98068C6.52351 9.33182 6.80212 9.69831 6.99042 10.1244C7.24637 10.7001 7.13827 11.1482 6.63893 11.529C6.46667 11.6605 6.27732 11.7689 6.10262 11.8972C6.05189 11.9357 5.99389 11.9636 5.9321 11.9791C5.87032 11.9947 5.80603 11.9975 5.74311 11.9875C5.61305 11.9701 5.48228 11.9527 5.35361 11.929C5.06172 11.8698 4.77987 11.7689 4.51673 11.6294C4.51183 11.6898 4.49309 11.7483 4.46194 11.8003C4.4308 11.8523 4.3881 11.8965 4.33715 11.9293C4.61292 12.0767 4.90716 12.1866 5.21204 12.256L5.46799 12.3122C5.23401 12.497 5.01468 12.6609 4.80545 12.8384C4.59623 13.0159 4.38701 13.2045 4.18198 13.3921C4.23311 13.4273 4.27523 13.4741 4.30492 13.5286C4.3346 13.5831 4.35102 13.6439 4.35284 13.7059C4.55439 13.5218 4.75803 13.3401 4.96098 13.1581C4.99585 13.1271 5.0356 13.1016 5.09034 13.0601C5.04466 13.3042 4.99166 13.5187 4.96725 13.7359C4.93692 14.0083 4.91669 14.282 4.8996 14.5561C4.93368 14.5467 4.96887 14.542 5.00421 14.5421C5.0902 14.542 5.17386 14.57 5.24238 14.622C5.24482 14.1069 5.33165 13.6041 5.44846 13.1027C5.5182 12.8084 5.63223 12.5667 5.91677 12.4321C5.94365 12.4168 5.9693 12.3995 5.99348 12.3802C6.24803 12.2016 6.53711 12.1486 6.83525 12.1898C7.6411 12.3 8.21401 13.0322 8.09441 13.8025C8.08796 13.8283 8.07628 13.8526 8.06008 13.8737C8.04388 13.8948 8.02352 13.9124 8.00026 13.9253C7.76523 14.0431 7.51696 14.1366 7.2896 14.267C7.04551 14.4065 6.81119 14.5683 6.57511 14.7248C6.63553 14.7416 6.6911 14.7724 6.73723 14.8149C6.78337 14.8573 6.81876 14.9101 6.84048 14.9689C7.10549 14.8043 7.36771 14.6356 7.63552 14.4766C7.76628 14.3992 7.91204 14.3468 8.05082 14.2834L8.08569 14.3081C8.0707 14.372 8.07035 14.4441 8.03896 14.4982C7.78336 14.9327 7.70839 15.4076 7.69026 15.893C7.74564 15.8666 7.80637 15.8534 7.86771 15.8543C7.92905 15.8553 7.98933 15.8704 8.04384 15.8986C8.04508 15.7863 8.05264 15.6742 8.06651 15.5628C8.0951 15.3626 8.14462 15.1656 8.18542 14.9672H8.22831C8.24958 15.0076 8.2705 15.0484 8.29247 15.0885C8.45287 15.3766 8.6593 15.6147 8.9421 15.7696C8.95575 15.7079 8.98395 15.6504 9.02435 15.6019C9.06475 15.5533 9.11618 15.5152 9.17433 15.4906C9.09172 15.4517 9.01381 15.4035 8.9421 15.3469C8.58224 15.0477 8.4316 14.646 8.41626 14.1903C8.4152 14.087 8.43913 13.9849 8.486 13.8928C8.90444 13.0786 9.91568 12.7979 10.7083 13.2652C10.8129 13.3269 10.8537 13.4026 10.8676 13.5218C10.8927 13.7675 10.9331 14.0114 10.9886 14.252C11.0655 14.56 11.1924 14.8533 11.3642 15.1203C11.3962 15.0697 11.4392 15.027 11.4901 14.9955C11.5409 14.964 11.5983 14.9444 11.6578 14.9382C11.4689 14.6227 11.3354 14.2771 11.2631 13.9166C11.2421 13.8119 11.232 13.7021 11.2132 13.5678C11.2948 13.6135 11.3454 13.6404 11.3949 13.6697C11.9205 13.9789 12.3665 14.4067 12.6973 14.9191C12.7001 14.8554 12.7183 14.7933 12.7504 14.7383C12.7824 14.6832 12.8274 14.6367 12.8814 14.6028C12.6959 14.3751 12.5055 14.1516 12.3172 13.926C12.2921 13.896 12.2652 13.8681 12.229 13.8283C12.5491 13.7736 12.8486 13.784 13.1464 13.8154C13.1166 13.7645 13.0986 13.7076 13.0937 13.6488C13.0888 13.59 13.0972 13.5309 13.1181 13.4758C12.8259 13.4681 12.5327 13.4587 12.2422 13.48C11.9894 13.4985 11.7509 13.5448 11.5368 13.353C11.4398 13.2659 11.2707 13.2317 11.217 13.1299C11.1633 13.0281 11.1968 12.8645 11.2069 12.7296C11.2418 12.2679 11.3195 11.9687 11.9315 11.8519C12.1617 11.808 12.3998 11.808 12.6345 11.786C12.6913 11.7808 12.7541 11.7815 12.8029 11.7567C12.9075 11.7044 12.9902 11.7288 13.0819 11.7842C13.396 11.9688 13.6803 12.1999 13.925 12.4698C13.9412 12.4112 13.9705 12.3571 14.0109 12.3117C14.0513 12.2662 14.1017 12.2307 14.158 12.2079C13.9693 12.0011 13.7578 11.8163 13.5275 11.657ZM10.853 12.9311C9.95891 12.5371 9.16178 12.6271 8.44276 13.3147C8.35384 12.9196 8.17844 12.5824 7.88484 12.315C7.59247 12.0464 7.22162 11.8789 6.82688 11.8369C6.89174 11.7794 6.93637 11.741 6.98031 11.7012C7.24706 11.4599 7.43362 11.1782 7.46849 10.8065C7.49278 10.5319 7.44103 10.2558 7.3189 10.0087C7.20417 9.76875 7.05911 9.54349 6.92661 9.31125C6.90813 9.27882 6.88685 9.24848 6.85687 9.20106C7.87891 9.44864 8.85318 9.50583 9.70506 8.75054C9.93729 9.45457 10.3906 9.80048 11.1588 9.65716C11.0068 10.4002 11.1961 11.023 11.8248 11.5178C11.0291 11.6779 10.838 12.2344 10.853 12.9311V12.9311ZM13.9683 6.70889C13.9686 6.81241 13.9382 6.91371 13.881 6.99996C13.8237 7.0862 13.7422 7.15351 13.6466 7.19337C13.5511 7.23323 13.4458 7.24383 13.3443 7.22385C13.2427 7.20386 13.1493 7.15419 13.076 7.0811C13.0027 7.00802 12.9527 6.91483 12.9324 6.81332C12.912 6.71181 12.9223 6.60655 12.9618 6.51088C13.0014 6.4152 13.0684 6.33341 13.1545 6.27586C13.2405 6.2183 13.3417 6.18758 13.4452 6.18758C13.5837 6.18758 13.7164 6.24245 13.8145 6.34016C13.9125 6.43788 13.9678 6.57047 13.9683 6.70889V6.70889ZM15.0106 7.83659C15.0106 7.93971 14.98 8.04052 14.9227 8.12625C14.8654 8.21199 14.7839 8.2788 14.6887 8.31825C14.5934 8.3577 14.4885 8.368 14.3874 8.34786C14.2863 8.32771 14.1934 8.27803 14.1205 8.20509C14.0476 8.13215 13.998 8.03923 13.9779 7.93808C13.9578 7.83693 13.9682 7.7321 14.0077 7.63685C14.0472 7.5416 14.1141 7.46021 14.1999 7.40297C14.2856 7.34573 14.3865 7.31521 14.4896 7.31528C14.558 7.31528 14.6258 7.32877 14.689 7.35497C14.7523 7.38117 14.8097 7.41958 14.8581 7.46799C14.9065 7.5164 14.9448 7.57388 14.971 7.63712C14.9972 7.70037 15.0106 7.76815 15.0106 7.83659V7.83659ZM15.2236 9.09471C15.224 9.19824 15.1937 9.29958 15.1365 9.38587C15.0793 9.47216 14.9977 9.53952 14.9022 9.57943C14.8066 9.61934 14.7014 9.63 14.5998 9.61005C14.4982 9.59011 14.4048 9.54046 14.3314 9.46739C14.2581 9.39433 14.2081 9.30113 14.1877 9.19961C14.1674 9.09809 14.1776 8.99282 14.2171 8.89712C14.2567 8.80142 14.3237 8.71961 14.4097 8.66204C14.4958 8.60448 14.597 8.57375 14.7006 8.57375C14.8389 8.57375 14.9716 8.62857 15.0697 8.7262C15.1677 8.82384 15.2231 8.95635 15.2236 9.09471V9.09471ZM15.2062 11.2173C15.2062 11.3203 15.1756 11.421 15.1184 11.5067C15.0612 11.5924 14.9799 11.6592 14.8848 11.6987C14.7896 11.7382 14.6849 11.7486 14.5838 11.7287C14.4827 11.7087 14.3898 11.6592 14.3169 11.5865C14.2439 11.5138 14.1941 11.421 14.1738 11.32C14.1535 11.219 14.1636 11.1142 14.2027 11.019C14.2419 10.9237 14.3085 10.8421 14.394 10.7846C14.4795 10.7272 14.5801 10.6963 14.6831 10.6959C14.7519 10.6955 14.82 10.7086 14.8837 10.7346C14.9473 10.7606 15.0052 10.7989 15.054 10.8474C15.1028 10.8958 15.1415 10.9535 15.1679 11.0169C15.1943 11.0804 15.2079 11.1485 15.2079 11.2173H15.2062ZM15.0555 12.7582C15.0552 12.8611 15.0244 12.9617 14.967 13.0471C14.9095 13.1326 14.8281 13.1991 14.7329 13.2384C14.6377 13.2776 14.5331 13.2878 14.4321 13.2676C14.3311 13.2475 14.2384 13.1978 14.1656 13.125C14.0928 13.0522 14.0432 12.9595 14.023 12.8585C14.0029 12.7576 14.013 12.6529 14.0523 12.5577C14.0915 12.4625 14.1581 12.3811 14.2435 12.3237C14.329 12.2663 14.4295 12.2355 14.5325 12.2351C14.6012 12.2351 14.6692 12.2486 14.7326 12.2749C14.7961 12.3012 14.8538 12.3397 14.9023 12.3883C14.9509 12.4369 14.9894 12.4945 15.0157 12.558C15.042 12.6215 15.0555 12.6895 15.0555 12.7582V12.7582ZM14.2762 13.6299C14.2758 13.733 14.245 13.8336 14.1875 13.9191C14.13 14.0046 14.0484 14.0712 13.9531 14.1103C13.8578 14.1495 13.753 14.1596 13.652 14.1392C13.551 14.1189 13.4582 14.0691 13.3855 13.9961C13.3128 13.923 13.2634 13.8301 13.2434 13.729C13.2235 13.6279 13.234 13.5232 13.2735 13.428C13.3131 13.3329 13.38 13.2516 13.4657 13.1944C13.5514 13.1373 13.6522 13.1068 13.7552 13.1069C13.8238 13.1069 13.8917 13.1204 13.9551 13.1467C14.0184 13.173 14.0759 13.2116 14.1243 13.2602C14.1727 13.3088 14.2111 13.3665 14.2371 13.4299C14.2632 13.4934 14.2765 13.5613 14.2762 13.6299V13.6299ZM13.8616 15.2312C13.8617 15.3343 13.8311 15.4351 13.7739 15.5209C13.7167 15.6066 13.6353 15.6735 13.54 15.713C13.4448 15.7525 13.3399 15.7629 13.2388 15.7428C13.1376 15.7228 13.0447 15.6731 12.9718 15.6002C12.8988 15.5274 12.8492 15.4345 12.829 15.3333C12.8089 15.2322 12.8192 15.1274 12.8586 15.0321C12.8981 14.9368 12.9649 14.8554 13.0506 14.7981C13.1363 14.7408 13.2372 14.7102 13.3403 14.7102C13.4785 14.7102 13.611 14.7651 13.7088 14.8628C13.8065 14.9604 13.8615 15.093 13.8616 15.2312V15.2312ZM12.3458 15.6273C12.3454 15.7303 12.3146 15.8309 12.2571 15.9164C12.1996 16.0019 12.118 16.0685 12.0228 16.1077C11.9275 16.1469 11.8227 16.1569 11.7217 16.1366C11.6207 16.1163 11.528 16.0665 11.4552 15.9935C11.3825 15.9206 11.333 15.8277 11.3131 15.7266C11.2931 15.6255 11.3035 15.5208 11.343 15.4256C11.3825 15.3305 11.4493 15.2492 11.535 15.192C11.6207 15.1348 11.7214 15.1042 11.8245 15.1042C11.8931 15.1042 11.961 15.1177 12.0244 15.144C12.0878 15.1703 12.1454 15.2088 12.1938 15.2574C12.2422 15.306 12.2806 15.3637 12.3067 15.4272C12.3328 15.4907 12.3461 15.5587 12.3458 15.6273V15.6273ZM10.1259 16.0231C10.1259 16.1265 10.0953 16.2276 10.0378 16.3136C9.98032 16.3997 9.89863 16.4667 9.80305 16.5063C9.70748 16.5459 9.60231 16.5562 9.50085 16.5361C9.39938 16.5159 9.30619 16.4661 9.23304 16.3929C9.15989 16.3198 9.11007 16.2266 9.08989 16.1251C9.06971 16.0236 9.08006 15.9185 9.11965 15.8229C9.15924 15.7273 9.22628 15.6456 9.3123 15.5882C9.39831 15.5307 9.49944 15.5 9.60289 15.5C9.67164 15.4998 9.73976 15.5131 9.80333 15.5393C9.86689 15.5656 9.92464 15.6041 9.97326 15.6527C10.0219 15.7013 10.0604 15.7591 10.0866 15.8226C10.1128 15.8862 10.1262 15.9543 10.1259 16.0231V16.0231ZM8.37895 16.544C8.37902 16.6472 8.34849 16.748 8.29124 16.8338C8.23398 16.9196 8.15257 16.9864 8.0573 17.0259C7.96202 17.0654 7.85718 17.0758 7.75602 17.0557C7.65486 17.0356 7.56195 16.9859 7.48902 16.913C7.41609 16.8401 7.36643 16.7471 7.34633 16.646C7.32623 16.5448 7.33658 16.44 7.37608 16.3447C7.41558 16.2494 7.48245 16.168 7.56823 16.1108C7.65401 16.0535 7.75485 16.023 7.85799 16.0231C7.9264 16.0231 7.99415 16.0365 8.05735 16.0627C8.12056 16.0889 8.17799 16.1273 8.22636 16.1756C8.27474 16.224 8.31311 16.2814 8.33929 16.3447C8.36547 16.4079 8.37895 16.4756 8.37895 16.544ZM6.77213 15.3047C6.7722 15.4079 6.74168 15.5087 6.68442 15.5945C6.62716 15.6803 6.54575 15.7471 6.45048 15.7866C6.35521 15.8261 6.25036 15.8365 6.14921 15.8164C6.04805 15.7963 5.95513 15.7466 5.8822 15.6737C5.80927 15.6008 5.75962 15.5079 5.73951 15.4067C5.71941 15.3055 5.72976 15.2007 5.76926 15.1054C5.80876 15.0102 5.87563 14.9287 5.96142 14.8715C6.0472 14.8142 6.14804 14.7837 6.25117 14.7838C6.31959 14.7838 6.38733 14.7972 6.45053 14.8234C6.51374 14.8496 6.57117 14.888 6.61955 14.9364C6.66792 14.9847 6.70629 15.0422 6.73248 15.1054C6.75866 15.1686 6.77213 15.2363 6.77213 15.3047V15.3047ZM5.51402 15.2155C5.51367 15.3185 5.4828 15.4191 5.42529 15.5046C5.36778 15.5902 5.28622 15.6567 5.19092 15.6959C5.09561 15.7351 4.99083 15.7451 4.88981 15.7248C4.78879 15.7044 4.69607 15.6546 4.62335 15.5816C4.55063 15.5086 4.50118 15.4157 4.48125 15.3146C4.46131 15.2135 4.47179 15.1087 4.51135 15.0136C4.55091 14.9184 4.61778 14.8371 4.70352 14.78C4.78926 14.7228 4.89001 14.6923 4.99306 14.6924C5.06165 14.6924 5.12956 14.706 5.1929 14.7323C5.25625 14.7586 5.31377 14.7971 5.36217 14.8457C5.41058 14.8943 5.44891 14.952 5.47496 15.0155C5.50102 15.0789 5.51429 15.1469 5.51402 15.2155ZM4.24195 13.9601C4.24161 14.0632 4.21074 14.1638 4.15325 14.2493C4.09576 14.3348 4.01422 14.4013 3.91894 14.4405C3.82365 14.4797 3.71889 14.4898 3.61788 14.4695C3.51687 14.4492 3.42414 14.3994 3.35141 14.3264C3.27868 14.2534 3.2292 14.1605 3.20923 14.0595C3.18925 13.9584 3.19968 13.8537 3.23919 13.7585C3.27869 13.6633 3.34551 13.582 3.4312 13.5248C3.51689 13.4676 3.61761 13.4371 3.72064 13.4371C3.78933 13.4373 3.8573 13.4511 3.92068 13.4776C3.98405 13.5041 4.04158 13.5428 4.08999 13.5915C4.1384 13.6402 4.17673 13.698 4.20281 13.7616C4.22888 13.8251 4.24218 13.8932 4.24195 13.9619V13.9601ZM4.37829 11.4094C4.37795 11.5124 4.34707 11.6131 4.28957 11.6986C4.23206 11.7841 4.1505 11.8506 4.0552 11.8898C3.95989 11.929 3.85511 11.939 3.75409 11.9187C3.65307 11.8984 3.56035 11.8485 3.48763 11.7755C3.41491 11.7025 3.36546 11.6096 3.34553 11.5085C3.32559 11.4074 3.33607 11.3027 3.37563 11.2075C3.41519 11.1124 3.48206 11.0311 3.5678 10.9739C3.65354 10.9167 3.75429 10.8863 3.85733 10.8863C3.92607 10.8863 3.99413 10.8999 4.05759 10.9264C4.12105 10.9528 4.17865 10.9915 4.22707 11.0403C4.2755 11.0891 4.31379 11.1469 4.33975 11.2106C4.3657 11.2742 4.3788 11.3424 4.37829 11.4111V11.4094ZM4.2151 7.67828C4.2151 7.78139 4.18453 7.88218 4.12725 7.9679C4.06996 8.05363 3.98855 8.12045 3.89329 8.15991C3.79803 8.19936 3.69322 8.20969 3.59209 8.18957C3.49097 8.16946 3.39808 8.11981 3.32517 8.0469C3.25227 7.974 3.20262 7.88111 3.1825 7.77998C3.16239 7.67886 3.17271 7.57404 3.21217 7.47878C3.25162 7.38353 3.31844 7.30211 3.40417 7.24483C3.4899 7.18755 3.59069 7.15697 3.69379 7.15697C3.76232 7.15693 3.83019 7.1704 3.89351 7.19663C3.95682 7.22285 4.01434 7.26131 4.06276 7.3098C4.11119 7.35829 4.14957 7.41586 4.17571 7.47921C4.20186 7.54256 4.21524 7.61045 4.2151 7.67898V7.67828ZM5.01258 6.20502C5.01279 6.30817 4.98239 6.40906 4.92524 6.49493C4.86808 6.58079 4.78673 6.64777 4.6915 6.68739C4.59626 6.72701 4.49141 6.73748 4.39021 6.71748C4.28902 6.69749 4.19604 6.64792 4.12302 6.57505C4.05001 6.50219 4.00026 6.4093 3.98006 6.30815C3.95986 6.207 3.97012 6.10213 4.00955 6.00681C4.04897 5.91149 4.11579 5.83001 4.20154 5.77268C4.28729 5.71536 4.38813 5.68475 4.49127 5.68475C4.62947 5.68475 4.76202 5.73963 4.85977 5.83732C4.95753 5.93501 5.01249 6.06752 5.01258 6.20571V6.20502ZM6.52525 5.82877C6.52566 5.93231 6.49534 6.03364 6.43812 6.11993C6.3809 6.20622 6.29935 6.27358 6.20382 6.31349C6.10828 6.3534 6.00304 6.36406 5.90144 6.34412C5.79984 6.32417 5.70645 6.27452 5.63309 6.20145C5.55973 6.12839 5.50971 6.03519 5.48935 5.93367C5.469 5.83216 5.47924 5.72688 5.51876 5.63118C5.55829 5.53549 5.62533 5.45367 5.71139 5.39611C5.79745 5.33854 5.89866 5.30781 6.0022 5.30781C6.14056 5.30781 6.27328 5.36263 6.37131 5.46027C6.46935 5.55791 6.5247 5.69041 6.52525 5.82877V5.82877ZM9.1984 5.48007C9.19805 5.58311 9.16717 5.68374 9.10967 5.76925C9.05216 5.85476 8.9706 5.9213 8.8753 5.96048C8.77999 5.99966 8.67521 6.00972 8.57419 5.98938C8.47317 5.96904 8.38045 5.91921 8.30773 5.8462C8.23501 5.77319 8.18556 5.68027 8.16563 5.57917C8.14569 5.47807 8.15617 5.37333 8.19573 5.27818C8.23529 5.18304 8.30216 5.10175 8.3879 5.04458C8.47364 4.98742 8.57439 4.95695 8.67743 4.95701C8.74588 4.95711 8.81363 4.97068 8.87683 4.99697C8.94002 5.02326 8.99741 5.06174 9.04573 5.11022C9.09405 5.15869 9.13234 5.21622 9.15841 5.2795C9.18449 5.34278 9.19784 5.41058 9.1977 5.47902L9.1984 5.48007ZM10.2947 5.39533C10.2947 5.49845 10.2641 5.59926 10.2068 5.68499C10.1495 5.77073 10.0681 5.83755 9.97282 5.87699C9.87754 5.91644 9.77271 5.92674 9.67157 5.9066C9.57044 5.88646 9.47755 5.83677 9.40466 5.76383C9.33177 5.69089 9.28215 5.59797 9.26207 5.49682C9.24199 5.39567 9.25237 5.29085 9.29188 5.19559C9.33139 5.10034 9.39826 5.01895 9.48403 4.96171C9.56981 4.90447 9.67063 4.87395 9.77375 4.87402C9.91168 4.87421 10.0439 4.92908 10.1414 5.02661C10.239 5.12414 10.2938 5.25636 10.294 5.39429L10.2947 5.39533ZM11.8876 5.80506C11.8877 5.9081 11.8572 6.00886 11.8 6.09459C11.7429 6.18033 11.6616 6.2472 11.5664 6.28676C11.4713 6.32632 11.3665 6.3368 11.2654 6.31686C11.1643 6.29693 11.0714 6.24748 10.9984 6.17476C10.9254 6.10204 10.8756 6.00932 10.8552 5.9083C10.8349 5.80728 10.8449 5.7025 10.8841 5.60719C10.9233 5.51189 10.9898 5.43033 11.0753 5.37282C11.1609 5.31532 11.2615 5.28444 11.3645 5.2841C11.5027 5.28382 11.6354 5.33843 11.7333 5.43592C11.8313 5.53341 11.8865 5.66581 11.8869 5.80401L11.8876 5.80506ZM10.1706 10.9174V11.1507C10.1706 11.1657 10.1676 11.1806 10.1618 11.1945C10.1561 11.2084 10.1476 11.221 10.137 11.2316C10.1263 11.2423 10.1136 11.2507 10.0997 11.2564C10.0858 11.2621 10.0709 11.2651 10.0559 11.265H8.3385C8.32345 11.2651 8.30854 11.2621 8.29462 11.2564C8.2807 11.2507 8.26805 11.2423 8.2574 11.2316C8.24674 11.221 8.23828 11.2084 8.23251 11.1945C8.22675 11.1806 8.22378 11.1657 8.22378 11.1507V10.9174C8.22378 10.9023 8.22675 10.8874 8.23251 10.8735C8.23828 10.8596 8.24674 10.847 8.2574 10.8364C8.26805 10.8257 8.2807 10.8173 8.29462 10.8116C8.30854 10.8059 8.32345 10.8029 8.3385 10.803H10.0552C10.0703 10.8029 10.0852 10.8057 10.0992 10.8114C10.1132 10.8171 10.126 10.8255 10.1367 10.8361C10.1474 10.8468 10.156 10.8594 10.1618 10.8734C10.1676 10.8873 10.1706 10.9023 10.1706 10.9174V10.9174ZM9.08681 10.0575H9.30824C9.33999 10.0576 9.37041 10.0702 9.39283 10.0927C9.41525 10.1152 9.42784 10.1457 9.42784 10.1774L9.40831 11.8142C9.40831 11.8805 9.38251 11.9035 9.30963 11.9401L9.07356 12.0482C9.0578 12.0482 9.04219 12.0451 9.02763 12.039C9.01307 12.033 8.99986 12.0241 8.98874 12.0129C8.97762 12.0018 8.96883 11.9885 8.96286 11.9739C8.95689 11.9593 8.95387 11.9437 8.95396 11.9279L8.96721 10.1774C8.96721 10.1457 8.9798 10.1152 9.00222 10.0927C9.02464 10.0702 9.05506 10.0576 9.08681 10.0575V10.0575Z" fill="white"/>
<g style="mix-blend-mode:multiply" opacity="0.24">
<g style="mix-blend-mode:multiply" opacity="0.24">
<path style="mix-blend-mode:multiply" opacity="0.24" d="M18.6341 5.45683V16.434L9.18286 21.8904V0L18.6341 5.45683Z" fill="url(#paint0_linear_222_14456)"/>
</g>
</g>
<path d="M24.634 1.78613H28.1944L37.1727 13.4734V1.78613H40.6815V19.846H37.3791L28.1686 7.77168V19.846H24.634V1.78613Z" fill="#0B69FF"/>
<path d="M55.775 18.169C54.9494 18.8398 54.098 19.33 53.2208 19.6396C52.3608 19.9492 51.3976 20.104 50.3312 20.104C49.3164 20.104 48.3618 19.9234 47.4674 19.5622C46.5902 19.201 45.8248 18.7108 45.1713 18.0916C44.5349 17.4724 44.0275 16.7414 43.6491 15.8986C43.2879 15.0386 43.1073 14.1184 43.1073 13.138C43.1073 12.1748 43.2793 11.2718 43.6233 10.4291C43.9845 9.56906 44.4747 8.82947 45.0939 8.21027C45.713 7.57388 46.444 7.07509 47.2868 6.71389C48.1468 6.35269 49.0584 6.17209 50.0216 6.17209C50.9676 6.17209 51.8448 6.36129 52.6532 6.73969C53.4788 7.10089 54.184 7.59968 54.7688 8.23607C55.3708 8.87247 55.8352 9.63786 56.162 10.5323C56.5059 11.4094 56.6779 12.364 56.6779 13.396V14.3248H46.6676C46.9084 15.1676 47.3728 15.847 48.0608 16.363C48.7488 16.879 49.5572 17.137 50.486 17.137C51.0708 17.137 51.6212 17.0424 52.1372 16.8532C52.6532 16.664 53.0918 16.3974 53.453 16.0534L55.775 18.169ZM49.9442 9.08747C49.1358 9.08747 48.4392 9.33686 47.8544 9.83566C47.2696 10.3173 46.8654 10.9708 46.6418 11.7964H53.2208C52.9972 11.0052 52.5844 10.3603 51.9824 9.86146C51.3976 9.34546 50.7182 9.08747 49.9442 9.08747Z" fill="#0B69FF"/>
<path d="M58.8435 19.846V6.40429H62.3781V7.87488C62.8081 7.29008 63.3241 6.85149 63.9261 6.55909C64.5453 6.24949 65.2247 6.09469 65.9642 6.09469C66.3082 6.11189 66.592 6.14629 66.8156 6.19789C67.0564 6.23229 67.2628 6.30109 67.4348 6.40429V9.50026C67.1768 9.37986 66.893 9.29386 66.5834 9.24227C66.2738 9.17347 65.9556 9.13907 65.6288 9.13907C64.9409 9.13907 64.3045 9.31106 63.7197 9.65506C63.1521 9.99906 62.7049 10.4979 62.3781 11.1514V19.846H58.8435Z" fill="#0B69FF"/>
<path d="M74.2397 19.846L68.4606 6.40429H72.3047L75.9941 15.3568L79.6577 6.40429H83.4244L77.6453 19.846H74.2397Z" fill="#0B69FF"/>
<path d="M96.3642 18.169C95.5386 18.8398 94.6872 19.33 93.8101 19.6396C92.9501 19.9492 91.9869 20.104 90.9205 20.104C89.9057 20.104 88.9511 19.9234 88.0567 19.5622C87.1795 19.201 86.4141 18.7108 85.7605 18.0916C85.1241 17.4724 84.6167 16.7414 84.2383 15.8986C83.8771 15.0386 83.6966 14.1184 83.6966 13.138C83.6966 12.1748 83.8685 11.2718 84.2125 10.4291C84.5737 9.56906 85.0639 8.82947 85.6831 8.21027C86.3023 7.57388 87.0333 7.07509 87.8761 6.71389C88.7361 6.35269 89.6477 6.17209 90.6109 6.17209C91.5569 6.17209 92.4341 6.36129 93.2425 6.73969C94.0681 7.10089 94.7732 7.59968 95.358 8.23607C95.96 8.87247 96.4244 9.63786 96.7512 10.5323C97.0952 11.4094 97.2672 12.364 97.2672 13.396V14.3248H87.2569C87.4977 15.1676 87.9621 15.847 88.6501 16.363C89.3381 16.879 90.1465 17.137 91.0753 17.137C91.6601 17.137 92.2105 17.0424 92.7265 16.8532C93.2425 16.664 93.6811 16.3974 94.0423 16.0534L96.3642 18.169ZM90.5335 9.08747C89.7251 9.08747 89.0285 9.33686 88.4437 9.83566C87.8589 10.3173 87.4547 10.9708 87.2311 11.7964H93.8101C93.5865 11.0052 93.1737 10.3603 92.5717 9.86146C91.9869 9.34546 91.3075 9.08747 90.5335 9.08747Z" fill="#0B69FF"/>
<defs>
<linearGradient id="paint0_linear_222_14456" x1="9.18286" y1="10.9454" x2="18.6341" y2="10.9454" gradientUnits="userSpaceOnUse">
<stop stop-color="#3A1A1A" stop-opacity="0.2"/>
<stop offset="0.15" stop-color="#462929" stop-opacity="0.22"/>
<stop offset="0.37" stop-color="#695050" stop-opacity="0.27"/>
<stop offset="0.64" stop-color="#A19292" stop-opacity="0.36"/>
<stop offset="0.95" stop-color="#EEECEC" stop-opacity="0.48"/>
<stop offset="1" stop-color="#FCFCFC" stop-opacity="0.5"/>
</linearGradient>
</defs>
</svg>
