<svg width="74" height="20" viewBox="0 0 74 20" fill="none" xmlns="http://www.w3.org/2000/svg">
<path d="M0.634033 0.786133H4.1944L13.1727 12.4734V0.786133H16.6815V18.846H13.3791L4.1686 6.77168V18.846H0.634033V0.786133Z" fill="#0B69FF"/>
<path d="M31.775 17.169C30.9494 17.8398 30.098 18.33 29.2208 18.6396C28.3608 18.9492 27.3976 19.104 26.3312 19.104C25.3164 19.104 24.3618 18.9234 23.4674 18.5622C22.5902 18.201 21.8248 17.7108 21.1713 17.0916C20.5349 16.4724 20.0275 15.7414 19.6491 14.8986C19.2879 14.0386 19.1073 13.1184 19.1073 12.138C19.1073 11.1748 19.2793 10.2718 19.6233 9.42906C19.9845 8.56906 20.4747 7.82947 21.0939 7.21027C21.713 6.57388 22.444 6.07509 23.2868 5.71389C24.1468 5.35269 25.0584 5.17209 26.0216 5.17209C26.9676 5.17209 27.8448 5.36129 28.6532 5.73969C29.4788 6.10089 30.184 6.59968 30.7688 7.23607C31.3708 7.87247 31.8352 8.63786 32.162 9.53225C32.5059 10.4094 32.6779 11.364 32.6779 12.396V13.3248H22.6676C22.9084 14.1676 23.3728 14.847 24.0608 15.363C24.7488 15.879 25.5572 16.137 26.486 16.137C27.0708 16.137 27.6212 16.0424 28.1372 15.8532C28.6532 15.664 29.0918 15.3974 29.453 15.0534L31.775 17.169ZM25.9442 8.08747C25.1358 8.08747 24.4392 8.33686 23.8544 8.83566C23.2696 9.31726 22.8654 9.97085 22.6418 10.7964H29.2208C28.9972 10.0052 28.5844 9.36026 27.9824 8.86146C27.3976 8.34546 26.7182 8.08747 25.9442 8.08747Z" fill="#0B69FF"/>
<path d="M34.8435 18.846V5.40429H38.3781V6.87488C38.8081 6.29008 39.3241 5.85149 39.9261 5.55909C40.5453 5.24949 41.2247 5.09469 41.9642 5.09469C42.3082 5.11189 42.592 5.14629 42.8156 5.19789C43.0564 5.23229 43.2628 5.30109 43.4348 5.40429V8.50026C43.1768 8.37986 42.893 8.29386 42.5834 8.24227C42.2738 8.17347 41.9556 8.13907 41.6288 8.13907C40.9409 8.13907 40.3045 8.31106 39.7197 8.65506C39.1521 8.99906 38.7049 9.49785 38.3781 10.1514V18.846H34.8435Z" fill="#0B69FF"/>
<path d="M50.2397 18.846L44.4606 5.40429H48.3047L51.9941 14.3568L55.6577 5.40429H59.4244L53.6453 18.846H50.2397Z" fill="#0B69FF"/>
<path d="M72.3642 17.169C71.5386 17.8398 70.6872 18.33 69.8101 18.6396C68.9501 18.9492 67.9869 19.104 66.9205 19.104C65.9057 19.104 64.9511 18.9234 64.0567 18.5622C63.1795 18.201 62.4141 17.7108 61.7605 17.0916C61.1241 16.4724 60.6167 15.7414 60.2383 14.8986C59.8771 14.0386 59.6966 13.1184 59.6966 12.138C59.6966 11.1748 59.8685 10.2718 60.2125 9.42906C60.5737 8.56906 61.0639 7.82947 61.6831 7.21027C62.3023 6.57388 63.0333 6.07509 63.8761 5.71389C64.7361 5.35269 65.6477 5.17209 66.6109 5.17209C67.5569 5.17209 68.4341 5.36129 69.2425 5.73969C70.0681 6.10089 70.7732 6.59968 71.358 7.23607C71.96 7.87247 72.4244 8.63786 72.7512 9.53225C73.0952 10.4094 73.2672 11.364 73.2672 12.396V13.3248H63.2569C63.4977 14.1676 63.9621 14.847 64.6501 15.363C65.3381 15.879 66.1465 16.137 67.0753 16.137C67.6601 16.137 68.2105 16.0424 68.7265 15.8532C69.2425 15.664 69.6811 15.3974 70.0423 15.0534L72.3642 17.169ZM66.5335 8.08747C65.7251 8.08747 65.0285 8.33686 64.4437 8.83566C63.8589 9.31726 63.4547 9.97085 63.2311 10.7964H69.8101C69.5865 10.0052 69.1737 9.36026 68.5717 8.86146C67.9869 8.34546 67.3075 8.08747 66.5335 8.08747Z" fill="#0B69FF"/>
</svg>
