<svg width="14" height="14" viewBox="0 0 14 14" fill="none" xmlns="http://www.w3.org/2000/svg">
<path fill-rule="evenodd" clip-rule="evenodd" d="M1 0C0.447715 0 0 0.447715 0 1V7C0 7.55228 0.447715 8 1 8H5C5.55228 8 6 7.55228 6 7V1C6 0.447715 5.55228 0 5 0H1ZM9 0C8.44772 0 8 0.447715 8 1V2C8 2.55228 8.44772 3 9 3H13C13.5523 3 14 2.55228 14 2V1C14 0.447715 13.5523 0 13 0H9ZM0 11C0 10.4477 0.447715 10 1 10H5C5.55228 10 6 10.4477 6 11V13C6 13.5523 5.55228 14 5 14H1C0.447715 14 0 13.5523 0 13V11ZM9 5C8.44772 5 8 5.44772 8 6V13C8 13.5523 8.44772 14 9 14H13C13.5523 14 14 13.5523 14 13V6C14 5.44772 13.5523 5 13 5H9Z" fill="white"/>
</svg>
