<svg width="98" height="22" viewBox="0 0 98 22" fill="none" xmlns="http://www.w3.org/2000/svg">
<path d="M18.3964 16.2798V5.65875L9.19805 0.348022L0 5.65875V16.2798L9.19805 21.5906L18.3964 16.2798Z" fill="#EFEFEF"/>
<path d="M18.3964 16.2798V5.65875L9.19805 0.348022L0 5.65875V16.2798L9.19805 21.5906L18.3964 16.2798Z" fill="white"/>
<path d="M13.5274 11.6571C13.5045 11.6393 13.4827 11.6201 13.4622 11.5996C13.4622 11.5894 13.4657 11.5793 13.4678 11.5692L14.0648 11.5343C14.0019 11.455 13.9678 11.3566 13.9682 11.2554C13.9682 11.2331 13.9698 11.2108 13.973 11.1888C13.6541 11.1951 13.337 11.2393 13.0284 11.3202C12.8265 11.3725 12.6372 11.4597 12.4098 11.3949C11.4889 11.1344 11.2075 10.0698 11.6817 9.34589C11.7299 9.26748 11.7693 9.18398 11.7992 9.09692C11.8068 9.06563 11.8247 9.0378 11.85 9.01788C11.8753 8.99796 11.9065 8.98711 11.9387 8.98708C12.2177 8.95605 12.4966 8.91002 12.7756 8.87584C12.824 8.87388 12.8717 8.88731 12.9119 8.9142C13.2336 9.11523 13.6042 9.22437 13.9835 9.22978C13.9738 9.19076 13.9689 9.15072 13.9689 9.11052C13.9688 9.02856 13.9896 8.94793 14.0292 8.87619C13.9431 8.88061 13.8568 8.8764 13.7715 8.86364C13.6093 8.83539 13.4517 8.781 13.2924 8.73776L13.299 8.6994C13.3367 8.68092 13.3757 8.66453 13.4116 8.64361C13.602 8.52958 13.7931 8.4166 13.9814 8.29944C13.9322 8.26821 13.8905 8.22647 13.8593 8.17721C13.8282 8.12795 13.8083 8.0724 13.8011 8.01455C13.4723 8.25445 13.1002 8.42829 12.7052 8.52644C12.4855 8.57945 12.2609 8.61048 12.0384 8.65128L12.0221 8.61641C12.043 8.57213 12.0615 8.52679 12.0852 8.4839C12.3276 8.04121 12.6371 7.63869 13.0026 7.29065C12.9058 7.22124 12.8315 7.12498 12.7889 7.01378C12.2015 7.56488 11.7486 8.2436 11.4652 8.99754C11.4435 9.0549 11.4082 9.10613 11.3623 9.14679C11.1004 9.36821 10.705 9.40413 10.441 9.2371C10.2955 9.14318 10.1817 9.00743 10.1147 8.84769C10.0477 8.68794 10.0305 8.51165 10.0655 8.34198C10.0948 8.21052 10.1147 8.07627 10.1307 7.94237C10.1329 7.90073 10.1452 7.86025 10.1667 7.8245C10.1881 7.78874 10.2181 7.75881 10.2538 7.73733C10.7377 7.42443 11.1095 6.96559 11.3152 6.42726C11.2855 6.43441 11.2551 6.43804 11.2246 6.43807C11.1329 6.4382 11.044 6.40639 10.9732 6.34811C10.8767 6.58683 10.7404 6.80744 10.5701 7.00053C10.4595 7.12536 10.3323 7.2359 10.2126 7.35306C10.1897 7.31715 10.1776 7.27538 10.1778 7.23276C10.1752 6.79309 10.1196 6.35532 10.0121 5.92897C9.97502 5.97107 9.92935 6.00479 9.87819 6.02787C9.82702 6.05096 9.77153 6.06289 9.7154 6.06287C9.70389 6.06287 9.69273 6.06287 9.68053 6.06113C9.7018 6.14586 9.72202 6.23094 9.73911 6.31637C9.77398 6.49073 9.79142 6.66926 9.82036 6.8743C9.7555 6.84257 9.72063 6.82827 9.68855 6.80944C9.37377 6.63189 9.13441 6.34581 9.0152 6.00464C8.94107 6.0783 8.84075 6.11955 8.73624 6.11936C8.7198 6.11936 8.70338 6.11831 8.68708 6.11622C8.86352 6.62463 9.21013 6.98797 9.72237 7.21219C9.79734 7.24462 9.83221 7.28193 9.82524 7.36597C9.81059 7.53544 9.81129 7.7063 9.79211 7.87542C9.77921 7.9891 9.77468 8.1237 9.71191 8.20773C9.50618 8.48286 9.25267 8.71126 8.92977 8.84865C8.49529 9.03311 8.04163 9.03625 7.58274 8.98813C6.94706 8.92257 6.40936 8.66279 5.98813 8.17774C5.97343 8.15744 5.963 8.13436 5.95749 8.1099C5.95198 8.08545 5.95148 8.06012 5.95605 8.03547C6.00487 7.81335 6.06938 7.59437 6.11715 7.37294C6.18131 7.07585 6.18898 6.77492 6.18201 6.47364C6.12511 6.50196 6.06224 6.51617 5.99869 6.51508C5.93515 6.51398 5.8728 6.49762 5.81692 6.46736C5.81308 6.71773 5.80855 6.9681 5.78902 7.21707C5.77403 7.40607 5.71579 7.59123 5.6722 7.8001C5.63489 7.76523 5.61746 7.75128 5.60246 7.73454C5.34364 7.41086 5.11773 7.06217 4.92808 6.69367C4.89304 6.74115 4.84784 6.78019 4.79577 6.80794C4.74371 6.8357 4.68609 6.85146 4.62715 6.85407C4.74989 7.07166 4.87716 7.28716 5.00235 7.50405C5.02467 7.54206 5.04838 7.57937 5.0815 7.63377C5.0052 7.63823 4.92871 7.63823 4.85241 7.63377C4.69572 7.61401 4.53962 7.59227 4.3841 7.56856C4.40211 7.6148 4.41134 7.664 4.4113 7.71362C4.41152 7.78021 4.39472 7.84575 4.36248 7.90401C4.66515 7.93679 4.96783 7.96573 5.26911 7.99921C5.31683 8.00135 5.36253 8.01912 5.39917 8.04977C5.67813 8.35698 5.95396 8.66593 6.22315 8.9808C6.52338 9.33195 6.802 9.69843 6.9903 10.1245C7.24624 10.7003 7.13815 11.1483 6.63881 11.5291C6.46655 11.6606 6.2772 11.769 6.1025 11.8973C6.05177 11.9359 5.99377 11.9637 5.93198 11.9793C5.8702 11.9948 5.80591 11.9976 5.74299 11.9877C5.61293 11.9702 5.48216 11.9528 5.35349 11.9291C5.0616 11.8699 4.77975 11.769 4.51661 11.6295C4.51171 11.69 4.49296 11.7484 4.46182 11.8004C4.43068 11.8524 4.38798 11.8966 4.33703 11.9294C4.6128 12.0768 4.90703 12.1867 5.21192 12.2562L5.46787 12.3123C5.23389 12.4971 5.01455 12.661 4.80533 12.8385C4.59611 13.016 4.38689 13.2046 4.18185 13.3922C4.23299 13.4274 4.27511 13.4742 4.30479 13.5287C4.33448 13.5832 4.3509 13.644 4.35272 13.7061C4.55427 13.5219 4.75791 13.3403 4.96085 13.1582C4.99572 13.1272 5.03548 13.1018 5.09022 13.0603C5.04454 13.3044 4.99154 13.5188 4.96713 13.736C4.93679 14.0084 4.91657 14.2821 4.89948 14.5562C4.93356 14.5468 4.96875 14.5421 5.00409 14.5422C5.09008 14.5421 5.17374 14.5701 5.24226 14.6221C5.2447 14.1071 5.33152 13.6042 5.44834 13.1028C5.51808 12.8085 5.6321 12.5668 5.91664 12.4323C5.94353 12.417 5.96918 12.3996 5.99336 12.3803C6.24791 12.2018 6.53698 12.1488 6.83512 12.1899C7.64097 12.3001 8.21389 13.0324 8.09428 13.8026C8.08784 13.8285 8.07615 13.8527 8.05996 13.8738C8.04376 13.8949 8.0234 13.9125 8.00014 13.9254C7.76511 14.0433 7.51684 14.1367 7.28948 14.2671C7.04539 14.4066 6.81106 14.5684 6.57499 14.725C6.63541 14.7417 6.69097 14.7726 6.73711 14.815C6.78325 14.8574 6.81864 14.9102 6.84035 14.9691C7.10537 14.8045 7.36759 14.6357 7.63539 14.4767C7.76616 14.3993 7.91191 14.347 8.0507 14.2835L8.08557 14.3083C8.07057 14.3721 8.07022 14.4443 8.03884 14.4983C7.78324 14.9328 7.70827 15.4077 7.69014 15.8931C7.74552 15.8667 7.80625 15.8535 7.86759 15.8545C7.92892 15.8554 7.98921 15.8706 8.04372 15.8987C8.04495 15.7864 8.05252 15.6743 8.06639 15.5629C8.09498 15.3627 8.1445 15.1657 8.1853 14.9673H8.22819C8.24946 15.0078 8.27038 15.0486 8.29235 15.0887C8.45275 15.3767 8.65918 15.6149 8.94198 15.7697C8.95563 15.708 8.98383 15.6505 9.02423 15.602C9.06463 15.5535 9.11606 15.5153 9.17421 15.4907C9.0916 15.4518 9.01369 15.4036 8.94198 15.347C8.58212 15.0479 8.43148 14.6462 8.41614 14.1904C8.41508 14.0871 8.43901 13.985 8.48588 13.893C8.90432 13.0787 9.91555 12.798 10.7082 13.2653C10.8128 13.327 10.8536 13.4027 10.8675 13.5219C10.8926 13.7676 10.933 14.0115 10.9885 14.2521C11.0654 14.5601 11.1923 14.8534 11.3641 15.1204C11.396 15.0698 11.4391 15.0272 11.4899 14.9956C11.5408 14.9641 11.5981 14.9445 11.6577 14.9384C11.4687 14.6228 11.3352 14.2773 11.2629 13.9167C11.242 13.8121 11.2319 13.7022 11.2131 13.568C11.2947 13.6137 11.3452 13.6405 11.3947 13.6698C11.9204 13.979 12.3664 14.4068 12.6971 14.9192C12.7 14.8555 12.7182 14.7935 12.7503 14.7384C12.7823 14.6833 12.8273 14.6368 12.8813 14.6029C12.6958 14.3752 12.5054 14.1517 12.3171 13.9261C12.292 13.8961 12.2651 13.8682 12.2288 13.8285C12.5489 13.7737 12.8485 13.7842 13.1463 13.8155C13.1165 13.7647 13.0985 13.7077 13.0936 13.6489C13.0887 13.5902 13.097 13.531 13.118 13.4759C12.8258 13.4682 12.5326 13.4588 12.2421 13.4801C11.9893 13.4986 11.7508 13.545 11.5367 13.3532C11.4397 13.266 11.2706 13.2318 11.2169 13.13C11.1632 13.0282 11.1967 12.8646 11.2068 12.7297C11.2417 12.268 11.3194 11.9688 11.9314 11.852C12.1615 11.8081 12.3997 11.8081 12.6344 11.7861C12.6912 11.7809 12.754 11.7816 12.8028 11.7568C12.9074 11.7045 12.9901 11.7289 13.0818 11.7844C13.3959 11.9689 13.6802 12.2 13.9249 12.4699C13.941 12.4113 13.9704 12.3572 14.0108 12.3118C14.0512 12.2664 14.1015 12.2309 14.1579 12.208C13.9692 12.0012 13.7577 11.8164 13.5274 11.6571ZM10.8529 12.9312C9.95879 12.5372 9.16166 12.6272 8.44264 13.3148C8.35372 12.9197 8.17832 12.5825 7.88471 12.3151C7.59235 12.0466 7.2215 11.879 6.82675 11.837C6.89161 11.7795 6.93625 11.7411 6.98018 11.7014C7.24694 11.4601 7.4335 11.1783 7.46837 10.8066C7.49266 10.532 7.44091 10.256 7.31877 10.0088C7.20405 9.76887 7.05899 9.54361 6.92648 9.31137C6.908 9.27894 6.88673 9.24861 6.85674 9.20118C7.87879 9.44876 8.85306 9.50595 9.70494 8.75066C9.93717 9.45469 10.3905 9.8006 11.1587 9.65728C11.0066 10.4004 11.196 11.0231 11.8247 11.518C11.029 11.678 10.8379 12.2345 10.8529 12.9312V12.9312ZM13.9682 6.70901C13.9685 6.81254 13.9381 6.91383 13.8809 7.00008C13.8236 7.08632 13.742 7.15364 13.6465 7.19349C13.5509 7.23335 13.4457 7.24395 13.3441 7.22397C13.2426 7.20399 13.1492 7.15431 13.0759 7.08123C13.0026 7.00815 12.9526 6.91495 12.9322 6.81344C12.9119 6.71193 12.9222 6.60667 12.9617 6.511C13.0012 6.41532 13.0683 6.33353 13.1543 6.27598C13.2404 6.21843 13.3416 6.18771 13.4451 6.1877C13.5835 6.1877 13.7163 6.24257 13.8143 6.34029C13.9124 6.438 13.9677 6.57059 13.9682 6.70901V6.70901ZM15.0104 7.83671C15.0104 7.93983 14.9798 8.04064 14.9225 8.12637C14.8653 8.21211 14.7838 8.27893 14.6885 8.31837C14.5933 8.35782 14.4884 8.36812 14.3873 8.34798C14.2862 8.32784 14.1933 8.27815 14.1204 8.20521C14.0475 8.13227 13.9979 8.03935 13.9778 7.9382C13.9577 7.83705 13.9681 7.73223 14.0076 7.63698C14.0471 7.54173 14.114 7.46033 14.1998 7.40309C14.2855 7.34585 14.3864 7.31534 14.4895 7.31541C14.5579 7.31541 14.6257 7.32889 14.6889 7.35509C14.7521 7.3813 14.8096 7.4197 14.858 7.46811C14.9063 7.51653 14.9447 7.574 14.9709 7.63724C14.997 7.70049 15.0105 7.76827 15.0104 7.83671V7.83671ZM15.2235 9.09483C15.2239 9.19837 15.1936 9.2997 15.1364 9.38599C15.0791 9.47228 14.9976 9.53965 14.9021 9.57955C14.8065 9.61946 14.7013 9.63012 14.5997 9.61018C14.4981 9.59023 14.4047 9.54058 14.3313 9.46752C14.258 9.39445 14.2079 9.30125 14.1876 9.19974C14.1672 9.09822 14.1775 8.99294 14.217 8.89724C14.2565 8.80155 14.3236 8.71973 14.4096 8.66217C14.4957 8.6046 14.5969 8.57387 14.7004 8.57387C14.8388 8.57387 14.9715 8.62869 15.0696 8.72633C15.1676 8.82397 15.2229 8.95647 15.2235 9.09483V9.09483ZM15.2061 11.2174C15.2061 11.3204 15.1755 11.4211 15.1183 11.5068C15.0611 11.5925 14.9798 11.6593 14.8846 11.6988C14.7895 11.7383 14.6848 11.7488 14.5837 11.7288C14.4826 11.7088 14.3897 11.6593 14.3167 11.5866C14.2438 11.5139 14.194 11.4212 14.1737 11.3201C14.1534 11.2191 14.1634 11.1144 14.2026 11.0191C14.2418 10.9238 14.3084 10.8423 14.3939 10.7848C14.4794 10.7273 14.58 10.6964 14.683 10.6961C14.7518 10.6956 14.8199 10.7088 14.8836 10.7347C14.9472 10.7607 15.0051 10.7991 15.0539 10.8475C15.1027 10.896 15.1414 10.9536 15.1678 11.0171C15.1942 11.0805 15.2078 11.1486 15.2078 11.2174H15.2061ZM15.0554 12.7583C15.0551 12.8612 15.0242 12.9618 14.9668 13.0473C14.9094 13.1327 14.828 13.1993 14.7328 13.2385C14.6376 13.2777 14.5329 13.2879 14.432 13.2677C14.331 13.2476 14.2383 13.198 14.1655 13.1252C14.0927 13.0524 14.0431 12.9596 14.0229 12.8587C14.0027 12.7577 14.0129 12.653 14.0521 12.5579C14.0914 12.4627 14.1579 12.3812 14.2434 12.3238C14.3289 12.2664 14.4294 12.2356 14.5324 12.2352C14.601 12.2352 14.6691 12.2488 14.7325 12.275C14.796 12.3013 14.8536 12.3399 14.9022 12.3884C14.9508 12.437 14.9893 12.4947 15.0156 12.5581C15.0419 12.6216 15.0554 12.6896 15.0554 12.7583V12.7583ZM14.2761 13.63C14.2757 13.7331 14.2448 13.8337 14.1873 13.9192C14.1298 14.0047 14.0483 14.0713 13.953 14.1105C13.8577 14.1496 13.7529 14.1597 13.6519 14.1393C13.5508 14.119 13.4581 14.0692 13.3854 13.9962C13.3127 13.9232 13.2632 13.8302 13.2433 13.7291C13.2234 13.628 13.2338 13.5233 13.2734 13.4282C13.313 13.333 13.3798 13.2517 13.4656 13.1946C13.5513 13.1374 13.6521 13.1069 13.7551 13.107C13.8237 13.107 13.8916 13.1205 13.955 13.1468C14.0183 13.1732 14.0758 13.2117 14.1242 13.2603C14.1726 13.3089 14.211 13.3666 14.237 13.43C14.2631 13.4935 14.2763 13.5615 14.2761 13.63V13.63ZM13.8615 15.2313C13.8615 15.3344 13.831 15.4352 13.7738 15.521C13.7165 15.6068 13.6351 15.6736 13.5399 15.7132C13.4446 15.7527 13.3398 15.763 13.2387 15.743C13.1375 15.7229 13.0446 15.6733 12.9717 15.6004C12.8987 15.5275 12.849 15.4346 12.8289 15.3335C12.8087 15.2323 12.819 15.1275 12.8585 15.0322C12.8979 14.9369 12.9648 14.8555 13.0505 14.7982C13.1362 14.7409 13.237 14.7103 13.3402 14.7103C13.4783 14.7103 13.6109 14.7652 13.7086 14.8629C13.8064 14.9606 13.8614 15.0931 13.8615 15.2313V15.2313ZM12.3457 15.6274C12.3453 15.7304 12.3144 15.8311 12.257 15.9166C12.1995 16.002 12.1179 16.0686 12.0226 16.1078C11.9273 16.147 11.8226 16.157 11.7216 16.1367C11.6206 16.1164 11.5278 16.0666 11.4551 15.9937C11.3824 15.9207 11.3329 15.8278 11.3129 15.7267C11.293 15.6256 11.3034 15.5209 11.3429 15.4258C11.3824 15.3306 11.4492 15.2493 11.5349 15.1921C11.6206 15.1349 11.7213 15.1044 11.8243 15.1044C11.893 15.1043 11.9609 15.1178 12.0243 15.1441C12.0877 15.1704 12.1452 15.209 12.1937 15.2576C12.2421 15.3062 12.2805 15.3638 12.3066 15.4273C12.3326 15.4908 12.3459 15.5588 12.3457 15.6274V15.6274ZM10.1258 16.0232C10.1258 16.1266 10.0951 16.2278 10.0377 16.3138C9.9802 16.3998 9.89851 16.4668 9.80293 16.5064C9.70736 16.546 9.60219 16.5564 9.50072 16.5362C9.39926 16.516 9.30606 16.4662 9.23291 16.393C9.15976 16.3199 9.10995 16.2267 9.08977 16.1252C9.06958 16.0238 9.07994 15.9186 9.11953 15.823C9.15912 15.7274 9.22616 15.6457 9.31218 15.5883C9.39819 15.5308 9.49932 15.5001 9.60277 15.5001C9.67152 15.4999 9.73964 15.5133 9.8032 15.5395C9.86677 15.5657 9.92452 15.6042 9.97314 15.6528C10.0218 15.7014 10.0603 15.7592 10.0865 15.8227C10.1127 15.8863 10.1261 15.9544 10.1258 16.0232V16.0232ZM8.37882 16.5441C8.37889 16.6473 8.34837 16.7481 8.29111 16.8339C8.23386 16.9197 8.15244 16.9865 8.05717 17.026C7.9619 17.0655 7.85706 17.0759 7.7559 17.0558C7.65474 17.0357 7.56182 16.986 7.4889 16.9131C7.41597 16.8402 7.36631 16.7473 7.34621 16.6461C7.3261 16.5449 7.33646 16.4401 7.37596 16.3448C7.41546 16.2496 7.48233 16.1681 7.56811 16.1109C7.65389 16.0536 7.75473 16.0231 7.85786 16.0232C7.92628 16.0232 7.99402 16.0367 8.05723 16.0628C8.12043 16.089 8.17786 16.1274 8.22624 16.1758C8.27462 16.2241 8.31299 16.2816 8.33917 16.3448C8.36535 16.408 8.37882 16.4757 8.37882 16.5441ZM6.77201 15.3049C6.77208 15.408 6.74155 15.5088 6.6843 15.5946C6.62704 15.6804 6.54563 15.7473 6.45036 15.7868C6.35509 15.8263 6.25024 15.8366 6.14908 15.8165C6.04793 15.7964 5.95501 15.7468 5.88208 15.6738C5.80915 15.6009 5.75949 15.508 5.73939 15.4068C5.71929 15.3057 5.72964 15.2008 5.76914 15.1055C5.80864 15.0103 5.87551 14.9289 5.96129 14.8716C6.04708 14.8144 6.14791 14.7838 6.25105 14.7839C6.31946 14.7839 6.38721 14.7974 6.45041 14.8235C6.51362 14.8497 6.57105 14.8881 6.61942 14.9365C6.6678 14.9849 6.70617 15.0423 6.73235 15.1055C6.75853 15.1687 6.77201 15.2364 6.77201 15.3049V15.3049ZM5.51389 15.2156C5.51355 15.3186 5.48267 15.4193 5.42517 15.5048C5.36766 15.5903 5.2861 15.6568 5.1908 15.696C5.09549 15.7352 4.99071 15.7452 4.88969 15.7249C4.78867 15.7046 4.69595 15.6547 4.62323 15.5817C4.55051 15.5087 4.50106 15.4158 4.48113 15.3147C4.46119 15.2136 4.47167 15.1089 4.51123 15.0137C4.55079 14.9186 4.61766 14.8373 4.7034 14.7801C4.78913 14.7229 4.88989 14.6925 4.99293 14.6925C5.06152 14.6925 5.12944 14.7061 5.19278 14.7324C5.25612 14.7587 5.31365 14.7973 5.36205 14.8459C5.41045 14.8945 5.44878 14.9521 5.47484 15.0156C5.5009 15.079 5.51417 15.147 5.51389 15.2156ZM4.24183 13.9603C4.24149 14.0633 4.21062 14.1639 4.15313 14.2494C4.09564 14.3349 4.0141 14.4015 3.91881 14.4406C3.82353 14.4798 3.71876 14.4899 3.61775 14.4696C3.51675 14.4493 3.42402 14.3995 3.35129 14.3265C3.27856 14.2535 3.22908 14.1607 3.20911 14.0596C3.18913 13.9585 3.19956 13.8538 3.23906 13.7586C3.27857 13.6635 3.34539 13.5822 3.43108 13.5249C3.51677 13.4677 3.61749 13.4372 3.72052 13.4372C3.78921 13.4374 3.85718 13.4512 3.92055 13.4777C3.98393 13.5042 4.04146 13.5429 4.08987 13.5916C4.13827 13.6404 4.17661 13.6982 4.20268 13.7617C4.22876 13.8253 4.24206 13.8933 4.24183 13.962V13.9603ZM4.37817 11.4095C4.37783 11.5126 4.34695 11.6132 4.28945 11.6987C4.23194 11.7842 4.15038 11.8507 4.05507 11.8899C3.95977 11.9291 3.85499 11.9392 3.75397 11.9188C3.65295 11.8985 3.56023 11.8487 3.48751 11.7756C3.41479 11.7026 3.36534 11.6097 3.34541 11.5086C3.32547 11.4075 3.33595 11.3028 3.37551 11.2076C3.41507 11.1125 3.48194 11.0312 3.56768 10.974C3.65341 10.9169 3.75417 10.8864 3.85721 10.8865C3.92595 10.8865 3.99401 10.9001 4.05747 10.9265C4.12092 10.9529 4.17852 10.9916 4.22695 11.0404C4.27538 11.0892 4.31367 11.1471 4.33962 11.2107C4.36558 11.2744 4.37868 11.3425 4.37817 11.4113V11.4095ZM4.21498 7.6784C4.21498 7.78151 4.18441 7.8823 4.12712 7.96803C4.06984 8.05376 3.98843 8.12057 3.89317 8.16003C3.79791 8.19949 3.69309 8.20981 3.59197 8.18969C3.49085 8.16958 3.39796 8.11993 3.32505 8.04702C3.25214 7.97412 3.2025 7.88123 3.18238 7.78011C3.16227 7.67898 3.17259 7.57416 3.21205 7.47891C3.2515 7.38365 3.31832 7.30223 3.40405 7.24495C3.48978 7.18767 3.59057 7.15709 3.69367 7.15709C3.7622 7.15705 3.83007 7.17052 3.89338 7.19675C3.9567 7.22298 4.01422 7.26143 4.06264 7.30993C4.11107 7.35842 4.14945 7.41599 4.17559 7.47934C4.20173 7.54269 4.21512 7.61057 4.21498 7.6791V7.6784ZM5.01246 6.20514C5.01267 6.30829 4.98227 6.40918 4.92511 6.49505C4.86796 6.58091 4.78661 6.64789 4.69137 6.68751C4.59614 6.72713 4.49129 6.7376 4.39009 6.7176C4.2889 6.69761 4.19591 6.64804 4.1229 6.57518C4.04989 6.50231 4.00014 6.40943 3.97994 6.30827C3.95974 6.20712 3.97 6.10225 4.00943 6.00693C4.04885 5.91161 4.11567 5.83014 4.20142 5.77281C4.28717 5.71548 4.388 5.68488 4.49115 5.68488C4.62935 5.68488 4.7619 5.73975 4.85965 5.83744C4.9574 5.93513 5.01237 6.06764 5.01246 6.20584V6.20514ZM6.52513 5.82889C6.52554 5.93243 6.49522 6.03376 6.438 6.12005C6.38078 6.20634 6.29923 6.27371 6.20369 6.31362C6.10816 6.35353 6.00292 6.36418 5.90132 6.34424C5.79972 6.32429 5.70633 6.27464 5.63297 6.20158C5.55961 6.12851 5.50958 6.03532 5.48923 5.9338C5.46888 5.83228 5.47912 5.727 5.51864 5.63131C5.55817 5.53561 5.62521 5.45379 5.71127 5.39623C5.79733 5.33866 5.89854 5.30793 6.00208 5.30793C6.14044 5.30793 6.27316 5.36275 6.37119 5.46039C6.46922 5.55803 6.52457 5.69053 6.52513 5.82889V5.82889ZM9.19827 5.48019C9.19793 5.58323 9.16705 5.68387 9.10955 5.76937C9.05204 5.85488 8.97048 5.92142 8.87517 5.9606C8.77987 5.99978 8.67509 6.00984 8.57407 5.9895C8.47305 5.96916 8.38033 5.91934 8.30761 5.84633C8.23489 5.77332 8.18544 5.68039 8.16551 5.57929C8.14557 5.4782 8.15605 5.37346 8.19561 5.27831C8.23517 5.18316 8.30204 5.10187 8.38778 5.0447C8.47351 4.98754 8.57427 4.95707 8.67731 4.95714C8.74576 4.95723 8.81351 4.97081 8.87671 4.99709C8.9399 5.02338 8.99729 5.06186 9.04561 5.11034C9.09392 5.15882 9.13221 5.21634 9.15829 5.27962C9.18436 5.3429 9.19771 5.4107 9.19758 5.47914L9.19827 5.48019ZM10.2946 5.39545C10.2946 5.49857 10.264 5.59938 10.2067 5.68511C10.1494 5.77085 10.068 5.83767 9.9727 5.87711C9.87742 5.91656 9.77259 5.92686 9.67145 5.90672C9.57032 5.88658 9.47743 5.83689 9.40454 5.76395C9.33165 5.69101 9.28202 5.59809 9.26195 5.49694C9.24187 5.3958 9.25225 5.29097 9.29176 5.19572C9.33127 5.10047 9.39814 5.01907 9.48391 4.96183C9.56969 4.90459 9.67051 4.87408 9.77363 4.87415C9.91156 4.87433 10.0438 4.9292 10.1413 5.02673C10.2388 5.12426 10.2937 5.25648 10.2939 5.39441L10.2946 5.39545ZM11.8875 5.80518C11.8875 5.90822 11.8571 6.00898 11.7999 6.09471C11.7427 6.18045 11.6614 6.24732 11.5663 6.28688C11.4711 6.32645 11.3664 6.33692 11.2653 6.31699C11.1642 6.29705 11.0713 6.2476 10.9983 6.17488C10.9253 6.10217 10.8754 6.00944 10.8551 5.90842C10.8348 5.8074 10.8448 5.70262 10.884 5.60732C10.9232 5.51201 10.9897 5.43045 11.0752 5.37295C11.1607 5.31544 11.2614 5.28456 11.3644 5.28422C11.5026 5.28394 11.6353 5.33855 11.7332 5.43604C11.8312 5.53354 11.8864 5.66593 11.8868 5.80413L11.8875 5.80518ZM10.1705 10.9175V11.1508C10.1705 11.1658 10.1675 11.1807 10.1617 11.1946C10.1559 11.2085 10.1475 11.2211 10.1368 11.2318C10.1262 11.2424 10.1135 11.2508 10.0996 11.2565C10.0857 11.2623 10.0708 11.2652 10.0557 11.2651H8.33838C8.32333 11.2652 8.30842 11.2623 8.2945 11.2565C8.28058 11.2508 8.26793 11.2424 8.25727 11.2318C8.24662 11.2211 8.23816 11.2085 8.23239 11.1946C8.22662 11.1807 8.22365 11.1658 8.22365 11.1508V10.9175C8.22365 10.9024 8.22662 10.8875 8.23239 10.8736C8.23816 10.8597 8.24662 10.8471 8.25727 10.8365C8.26793 10.8259 8.28058 10.8175 8.2945 10.8117C8.30842 10.806 8.32333 10.8031 8.33838 10.8031H10.055C10.0701 10.803 10.0851 10.8058 10.0991 10.8115C10.1131 10.8172 10.1259 10.8256 10.1366 10.8362C10.1473 10.8469 10.1558 10.8595 10.1616 10.8735C10.1675 10.8874 10.1705 10.9024 10.1705 10.9175V10.9175ZM9.08669 10.0576H9.30811C9.33987 10.0577 9.37029 10.0704 9.39271 10.0928C9.41513 10.1153 9.42772 10.1458 9.42772 10.1775L9.40819 11.8144C9.40819 11.8806 9.38239 11.9036 9.30951 11.9402L9.07344 12.0483C9.05767 12.0483 9.04206 12.0452 9.02751 12.0392C9.01295 12.0331 8.99973 12.0242 8.98862 12.0131C8.9775 12.0019 8.96871 11.9886 8.96274 11.974C8.95677 11.9594 8.95374 11.9438 8.95384 11.928L8.96709 10.1775C8.96709 10.1458 8.97967 10.1153 9.00209 10.0928C9.02451 10.0704 9.05494 10.0577 9.08669 10.0576V10.0576Z" fill="#0051CA"/>
<g style="mix-blend-mode:multiply" opacity="0.24">
<g style="mix-blend-mode:multiply" opacity="0.24">
<path style="mix-blend-mode:multiply" opacity="0.24" d="M18.6338 5.45683V16.434L9.18262 21.8904V0L18.6338 5.45683Z" fill="url(#paint0_linear_1190_953)"/>
</g>
</g>
<path d="M24.6343 1.78625H28.1946L37.173 13.4736V1.78625H40.6817V19.8461H37.3794L28.1688 7.7718V19.8461H24.6343V1.78625Z" fill="white"/>
<path d="M55.7752 18.1691C54.9496 18.8399 54.0982 19.3301 53.221 19.6397C52.361 19.9493 51.3978 20.1041 50.3314 20.1041C49.3167 20.1041 48.3621 19.9235 47.4677 19.5623C46.5905 19.2011 45.8251 18.7109 45.1715 18.0917C44.5351 17.4725 44.0277 16.7415 43.6493 15.8987C43.2881 15.0387 43.1075 14.1185 43.1075 13.1382C43.1075 12.175 43.2795 11.272 43.6235 10.4292C43.9847 9.56919 44.4749 8.82959 45.0941 8.2104C45.7133 7.574 46.4443 7.07521 47.2871 6.71401C48.1471 6.35281 49.0587 6.17221 50.0219 6.17221C50.9678 6.17221 51.845 6.36141 52.6534 6.73981C53.479 7.10101 54.1842 7.5998 54.769 8.2362C55.371 8.87259 55.8354 9.63798 56.1622 10.5324C56.5062 11.4096 56.6782 12.3642 56.6782 13.3961V14.3249H46.6679C46.9087 15.1677 47.3731 15.8471 48.0611 16.3631C48.7491 16.8791 49.5575 17.1371 50.4862 17.1371C51.071 17.1371 51.6214 17.0425 52.1374 16.8533C52.6534 16.6641 53.092 16.3975 53.4532 16.0535L55.7752 18.1691ZM49.9444 9.08759C49.1361 9.08759 48.4395 9.33699 47.8547 9.83578C47.2699 10.3174 46.8657 10.971 46.6421 11.7966H53.221C52.9974 11.0054 52.5846 10.3604 51.9826 9.86158C51.3978 9.34559 50.7184 9.08759 49.9444 9.08759Z" fill="white"/>
<path d="M58.8438 19.8461V6.40441H62.3783V7.875C62.8083 7.29021 63.3243 6.85161 63.9263 6.55921C64.5455 6.24961 65.2249 6.09482 65.9645 6.09482C66.3085 6.11202 66.5923 6.14642 66.8159 6.19801C67.0567 6.23241 67.2631 6.30121 67.4351 6.40441V9.50039C67.1771 9.37999 66.8933 9.29399 66.5837 9.24239C66.2741 9.17359 65.9559 9.13919 65.6291 9.13919C64.9411 9.13919 64.3047 9.31119 63.7199 9.65518C63.1523 9.99918 62.7051 10.498 62.3783 11.1516V19.8461H58.8438Z" fill="white"/>
<path d="M74.24 19.8461L68.4608 6.40441H72.305L75.9944 15.3569L79.6579 6.40441H83.4247L77.6455 19.8461H74.24Z" fill="white"/>
<path d="M96.3645 18.1691C95.5389 18.8399 94.6875 19.3301 93.8103 19.6397C92.9503 19.9493 91.9871 20.1041 90.9207 20.1041C89.9059 20.1041 88.9513 19.9235 88.057 19.5623C87.1798 19.2011 86.4144 18.7109 85.7608 18.0917C85.1244 17.4725 84.617 16.7415 84.2386 15.8987C83.8774 15.0387 83.6968 14.1185 83.6968 13.1382C83.6968 12.175 83.8688 11.272 84.2128 10.4292C84.574 9.56919 85.0642 8.82959 85.6834 8.2104C86.3026 7.574 87.0336 7.07521 87.8764 6.71401C88.7364 6.35281 89.6479 6.17221 90.6111 6.17221C91.5571 6.17221 92.4343 6.36141 93.2427 6.73981C94.0683 7.10101 94.7735 7.5998 95.3583 8.2362C95.9603 8.87259 96.4247 9.63798 96.7515 10.5324C97.0955 11.4096 97.2675 12.3642 97.2675 13.3961V14.3249H87.2572C87.498 15.1677 87.9624 15.8471 88.6504 16.3631C89.3383 16.8791 90.1467 17.1371 91.0755 17.1371C91.6603 17.1371 92.2107 17.0425 92.7267 16.8533C93.2427 16.6641 93.6813 16.3975 94.0425 16.0535L96.3645 18.1691ZM90.5337 9.08759C89.7253 9.08759 89.0287 9.33699 88.444 9.83578C87.8592 10.3174 87.455 10.971 87.2314 11.7966H93.8103C93.5867 11.0054 93.1739 10.3604 92.5719 9.86158C91.9871 9.34559 91.3077 9.08759 90.5337 9.08759Z" fill="white"/>
<defs>
<linearGradient id="paint0_linear_1190_953" x1="9.18262" y1="10.9454" x2="18.6338" y2="10.9454" gradientUnits="userSpaceOnUse">
<stop stop-color="#3A1A1A" stop-opacity="0.2"/>
<stop offset="0.15" stop-color="#462929" stop-opacity="0.22"/>
<stop offset="0.37" stop-color="#695050" stop-opacity="0.27"/>
<stop offset="0.64" stop-color="#A19292" stop-opacity="0.36"/>
<stop offset="0.95" stop-color="#EEECEC" stop-opacity="0.48"/>
<stop offset="1" stop-color="#FCFCFC" stop-opacity="0.5"/>
</linearGradient>
</defs>
</svg>
