<svg width="13" height="14" viewBox="0 0 13 14" fill="none" xmlns="http://www.w3.org/2000/svg">
<path d="M10.5275 7.65697C10.5046 7.63921 10.4828 7.61999 10.4623 7.59943C10.4623 7.58932 10.4658 7.5792 10.4679 7.56909L11.0649 7.53422C11.002 7.45486 10.968 7.3565 10.9683 7.25526C10.9683 7.23297 10.97 7.21072 10.9732 7.18866C10.6542 7.19501 10.3371 7.23913 10.0285 7.32012C9.82664 7.37242 9.63729 7.4596 9.40994 7.39474C8.48902 7.13426 8.20761 6.06968 8.68185 5.34577C8.73006 5.26735 8.76947 5.18386 8.79936 5.0968C8.80694 5.06551 8.82481 5.03767 8.8501 5.01775C8.8754 4.99784 8.90665 4.98699 8.93884 4.98696C9.2178 4.95592 9.49676 4.9099 9.77572 4.87572C9.82409 4.87376 9.87182 4.88719 9.91207 4.91408C10.2338 5.11511 10.6043 5.22424 10.9836 5.22965C10.9739 5.19064 10.969 5.1506 10.969 5.1104C10.9689 5.02844 10.9897 4.94781 11.0293 4.87607C10.9432 4.88049 10.8569 4.87628 10.7716 4.86352C10.6095 4.83527 10.4519 4.78087 10.2925 4.73764L10.2991 4.69928C10.3368 4.6808 10.3758 4.66441 10.4118 4.64349C10.6021 4.52946 10.7932 4.41648 10.9815 4.29932C10.9323 4.26809 10.8906 4.22635 10.8594 4.17709C10.8283 4.12783 10.8084 4.07228 10.8013 4.01443C10.4725 4.25433 10.1003 4.42817 9.70529 4.52632C9.4856 4.57933 9.26104 4.61036 9.03857 4.65116L9.02218 4.61629C9.0431 4.572 9.06158 4.52667 9.0853 4.48378C9.32772 4.04109 9.6372 3.63857 10.0027 3.29052C9.90595 3.22111 9.83163 3.12486 9.78898 3.01366C9.20158 3.56475 8.7487 4.24348 8.4653 4.99742C8.44364 5.05478 8.40833 5.106 8.36244 5.14666C8.10056 5.36809 7.70513 5.404 7.44117 5.23698C7.2956 5.14306 7.18183 5.00731 7.1148 4.84756C7.04778 4.68781 7.03064 4.51153 7.06562 4.34186C7.09491 4.2104 7.11478 4.07615 7.13082 3.94225C7.13298 3.9006 7.14533 3.86013 7.16679 3.82437C7.18826 3.78862 7.21817 3.75869 7.25392 3.73721C7.73787 3.42431 8.10964 2.96546 8.31536 2.42714C8.28567 2.43429 8.25524 2.43792 8.2247 2.43795C8.13299 2.43808 8.0441 2.40627 7.97329 2.34798C7.87682 2.58671 7.74051 2.80731 7.57019 3.00041C7.45965 3.12524 7.33237 3.23578 7.21277 3.35294C7.18983 3.31703 7.17772 3.27526 7.1779 3.23264C7.17531 2.79296 7.1197 2.3552 7.01227 1.92885C6.97514 1.97095 6.92948 2.00466 6.87831 2.02775C6.82715 2.05084 6.77165 2.06277 6.71552 2.06275C6.70401 2.06275 6.69285 2.06275 6.68065 2.061C6.70192 2.14574 6.72215 2.23082 6.73923 2.31625C6.7741 2.4906 6.79154 2.66914 6.82048 2.87417C6.75562 2.84244 6.72075 2.82815 6.68867 2.80932C6.37389 2.63177 6.13453 2.34568 6.01533 2.00451C5.94119 2.07818 5.84087 2.11943 5.73637 2.11924C5.71993 2.11923 5.70351 2.11819 5.6872 2.1161C5.86364 2.6245 6.21025 2.98785 6.72249 3.21207C6.79747 3.2445 6.83234 3.28181 6.82536 3.36584C6.81072 3.53531 6.81141 3.70618 6.79223 3.8753C6.77933 3.98897 6.7748 4.12357 6.71203 4.20761C6.5063 4.48274 6.25279 4.71114 5.9299 4.84852C5.49541 5.03299 5.04175 5.03613 4.58286 4.988C3.94718 4.92245 3.40948 4.66267 2.98825 4.17762C2.97355 4.15731 2.96313 4.13423 2.95761 4.10978C2.9521 4.08532 2.95161 4.06 2.95617 4.03535C3.00499 3.81323 3.0695 3.59424 3.11727 3.37282C3.18143 3.07572 3.1891 2.7748 3.18213 2.47352C3.12523 2.50183 3.06236 2.51605 2.99882 2.51495C2.93527 2.51386 2.87293 2.4975 2.81704 2.46724C2.8132 2.71761 2.80867 2.96798 2.78914 3.21695C2.77415 3.40595 2.71591 3.59111 2.67233 3.79998C2.63502 3.76511 2.61758 3.75116 2.60259 3.73442C2.34376 3.41073 2.11785 3.06205 1.9282 2.69355C1.89317 2.74102 1.84796 2.78007 1.79589 2.80782C1.74383 2.83558 1.68621 2.85134 1.62727 2.85395C1.75001 3.07154 1.87729 3.28704 2.00247 3.50393C2.02479 3.54194 2.0485 3.57925 2.08163 3.63365C2.00533 3.63811 1.92883 3.63811 1.85253 3.63365C1.69585 3.61389 1.53974 3.59215 1.38422 3.56844C1.40223 3.61468 1.41146 3.66388 1.41142 3.7135C1.41165 3.78009 1.39484 3.84563 1.3626 3.90389C1.66528 3.93667 1.96795 3.96561 2.26923 3.99909C2.31695 4.00123 2.36265 4.01899 2.39929 4.04965C2.67825 4.35685 2.95408 4.6658 3.22327 4.98068C3.52351 5.33182 3.80212 5.69831 3.99042 6.12442C4.24637 6.70013 4.13827 7.14821 3.63893 7.52899C3.46667 7.66045 3.27732 7.7689 3.10262 7.89722C3.05189 7.93575 2.99389 7.96361 2.9321 7.97913C2.87032 7.99465 2.80603 7.99751 2.74311 7.98753C2.61305 7.9701 2.48228 7.95266 2.35361 7.92895C2.06172 7.86978 1.77987 7.7689 1.51673 7.62942C1.51183 7.68984 1.49309 7.74831 1.46194 7.80032C1.4308 7.85233 1.3881 7.89646 1.33715 7.9293C1.61292 8.0767 1.90716 8.18659 2.21204 8.25603L2.46799 8.31218C2.23401 8.49699 2.01468 8.66088 1.80545 8.83837C1.59623 9.01586 1.38701 9.2045 1.18198 9.39211C1.23311 9.42731 1.27523 9.47407 1.30492 9.5286C1.3346 9.58313 1.35102 9.64388 1.35284 9.70594C1.55439 9.52182 1.75803 9.34015 1.96098 9.15813C1.99585 9.12709 2.0356 9.10164 2.09034 9.06014C2.04466 9.30423 1.99166 9.51868 1.96725 9.73592C1.93692 10.0083 1.91669 10.282 1.8996 10.5561C1.93368 10.5467 1.96887 10.542 2.00421 10.5421C2.0902 10.542 2.17386 10.57 2.24238 10.622C2.24482 10.1069 2.33165 9.60411 2.44846 9.10268C2.5182 8.80838 2.63223 8.56673 2.91677 8.43213C2.94365 8.41684 2.9693 8.39947 2.99348 8.38017C3.24803 8.20164 3.53711 8.14863 3.83525 8.18978C4.6411 8.29997 5.21401 9.03224 5.09441 9.80253C5.08796 9.82834 5.07628 9.85256 5.06008 9.87367C5.04388 9.89479 5.02352 9.91235 5.00026 9.92527C4.76523 10.0431 4.51696 10.1366 4.2896 10.267C4.04551 10.4065 3.81119 10.5683 3.57511 10.7248C3.63553 10.7416 3.6911 10.7724 3.73723 10.8149C3.78337 10.8573 3.81876 10.9101 3.84048 10.9689C4.10549 10.8043 4.36771 10.6356 4.63552 10.4766C4.76628 10.3992 4.91204 10.3468 5.05082 10.2834L5.08569 10.3081C5.0707 10.372 5.07035 10.4441 5.03896 10.4982C4.78336 10.9327 4.70839 11.4076 4.69026 11.893C4.74564 11.8666 4.80637 11.8534 4.86771 11.8543C4.92905 11.8553 4.98933 11.8704 5.04384 11.8986C5.04508 11.7863 5.05264 11.6742 5.06651 11.5628C5.0951 11.3626 5.14462 11.1656 5.18542 10.9672H5.22831C5.24958 11.0076 5.2705 11.0484 5.29247 11.0885C5.45287 11.3766 5.6593 11.6147 5.9421 11.7696C5.95575 11.7079 5.98395 11.6504 6.02435 11.6019C6.06475 11.5533 6.11618 11.5152 6.17433 11.4906C6.09172 11.4517 6.01381 11.4035 5.9421 11.3469C5.58224 11.0477 5.4316 10.646 5.41626 10.1903C5.4152 10.087 5.43913 9.98492 5.486 9.89284C5.90444 9.07862 6.91568 8.79792 7.70827 9.26518C7.81288 9.3269 7.85368 9.40257 7.86763 9.52182C7.89268 9.7675 7.93309 10.0114 7.98863 10.252C8.06553 10.56 8.19239 10.8533 8.36418 11.1203C8.39616 11.0697 8.4392 11.027 8.49006 10.9955C8.54091 10.964 8.59827 10.9444 8.65779 10.9382C8.46886 10.6227 8.33536 10.2771 8.26306 9.91655C8.24214 9.81194 8.23202 9.7021 8.21319 9.56785C8.29479 9.61353 8.34535 9.64038 8.39487 9.66967C8.92051 9.97885 9.36653 10.4067 9.69727 10.9191C9.70009 10.8554 9.71831 10.7933 9.75038 10.7383C9.78245 10.6832 9.8274 10.6367 9.88138 10.6028C9.69587 10.3751 9.50548 10.1516 9.31718 9.92597C9.29207 9.89598 9.26523 9.86808 9.22896 9.82833C9.54907 9.77358 9.8486 9.78404 10.1464 9.81543C10.1166 9.76453 10.0986 9.7076 10.0937 9.64882C10.0888 9.59004 10.0972 9.53091 10.1181 9.47579C9.82594 9.46812 9.53268 9.45871 9.24221 9.47998C8.9894 9.49846 8.75089 9.54483 8.53679 9.35305C8.43985 9.26587 8.27073 9.2317 8.21703 9.12988C8.16333 9.02806 8.1968 8.86452 8.20692 8.72957C8.24179 8.26789 8.31955 7.9687 8.93152 7.85189C9.16166 7.80795 9.39983 7.80795 9.6345 7.78598C9.69134 7.78075 9.75411 7.78145 9.80292 7.75669C9.90754 7.70439 9.99018 7.7288 10.0819 7.78424C10.396 7.96875 10.6803 8.19991 10.925 8.46979C10.9412 8.41118 10.9705 8.35708 11.0109 8.31166C11.0513 8.26625 11.1017 8.23075 11.158 8.20791C10.9693 8.00108 10.7578 7.81625 10.5275 7.65697ZM7.85298 8.93112C6.95891 8.53709 6.16178 8.62705 5.44276 9.31469C5.35384 8.91961 5.17844 8.58242 4.88484 8.31497C4.59247 8.04644 4.22162 7.87886 3.82688 7.8369C3.89174 7.77936 3.93637 7.741 3.98031 7.70125C4.24706 7.45995 4.43362 7.1782 4.46849 6.80648C4.49278 6.53185 4.44103 6.25583 4.3189 6.00865C4.20417 5.76875 4.05911 5.54349 3.92661 5.31125C3.90813 5.27882 3.88685 5.24848 3.85687 5.20106C4.87891 5.44864 5.85318 5.50583 6.70506 4.75054C6.93729 5.45457 7.39061 5.80048 8.1588 5.65716C8.00676 6.40025 8.19611 7.02303 8.82482 7.51783C8.02908 7.67789 7.83799 8.23441 7.85298 8.93112V8.93112ZM10.9683 2.70889C10.9686 2.81241 10.9382 2.91371 10.881 2.99996C10.8237 3.0862 10.7422 3.15351 10.6466 3.19337C10.5511 3.23323 10.4458 3.24383 10.3443 3.22385C10.2427 3.20386 10.1493 3.15419 10.076 3.0811C10.0027 3.00802 9.95269 2.91483 9.93236 2.81332C9.91204 2.71181 9.92229 2.60655 9.96183 2.51088C10.0014 2.4152 10.0684 2.33341 10.1545 2.27586C10.2405 2.2183 10.3417 2.18758 10.4452 2.18758C10.5837 2.18758 10.7164 2.24245 10.8145 2.34016C10.9125 2.43788 10.9678 2.57047 10.9683 2.70889V2.70889ZM12.0106 3.83659C12.0106 3.93971 11.98 4.04052 11.9227 4.12625C11.8654 4.21199 11.7839 4.2788 11.6887 4.31825C11.5934 4.3577 11.4885 4.368 11.3874 4.34786C11.2863 4.32771 11.1934 4.27803 11.1205 4.20509C11.0476 4.13215 10.998 4.03923 10.9779 3.93808C10.9578 3.83693 10.9682 3.7321 11.0077 3.63685C11.0472 3.5416 11.1141 3.46021 11.1999 3.40297C11.2856 3.34573 11.3865 3.31521 11.4896 3.31528C11.558 3.31528 11.6258 3.32877 11.689 3.35497C11.7523 3.38117 11.8097 3.41958 11.8581 3.46799C11.9065 3.5164 11.9448 3.57388 11.971 3.63712C11.9972 3.70037 12.0106 3.76815 12.0106 3.83659V3.83659ZM12.2236 5.09471C12.224 5.19824 12.1937 5.29958 12.1365 5.38587C12.0793 5.47216 11.9977 5.53952 11.9022 5.57943C11.8066 5.61934 11.7014 5.63 11.5998 5.61005C11.4982 5.59011 11.4048 5.54046 11.3314 5.46739C11.2581 5.39433 11.2081 5.30113 11.1877 5.19961C11.1674 5.09809 11.1776 4.99282 11.2171 4.89712C11.2567 4.80142 11.3237 4.71961 11.4097 4.66204C11.4958 4.60448 11.597 4.57375 11.7006 4.57375C11.8389 4.57375 11.9716 4.62857 12.0697 4.7262C12.1677 4.82384 12.2231 4.95635 12.2236 5.09471V5.09471ZM12.2062 7.21725C12.2062 7.32028 12.1756 7.421 12.1184 7.50669C12.0612 7.59239 11.9799 7.6592 11.8848 7.69871C11.7896 7.73822 11.6849 7.74864 11.5838 7.72867C11.4827 7.70869 11.3898 7.65922 11.3169 7.58649C11.2439 7.51375 11.1941 7.42103 11.1738 7.32002C11.1535 7.21901 11.1636 7.11425 11.2027 7.01896C11.2419 6.92368 11.3085 6.84214 11.394 6.78465C11.4795 6.72715 11.5801 6.69629 11.6831 6.69594C11.7519 6.69548 11.82 6.70863 11.8837 6.73462C11.9473 6.76061 12.0052 6.79894 12.054 6.84739C12.1028 6.89585 12.1415 6.95347 12.1679 7.01695C12.1943 7.08042 12.2079 7.1485 12.2079 7.21725H12.2062ZM12.0555 8.75816C12.0552 8.86112 12.0244 8.96167 11.967 9.04713C11.9095 9.13259 11.8281 9.19914 11.7329 9.23838C11.6377 9.27762 11.5331 9.2878 11.4321 9.26762C11.3311 9.24745 11.2384 9.19784 11.1656 9.12504C11.0928 9.05224 11.0432 8.95951 11.023 8.85855C11.0029 8.75759 11.013 8.65291 11.0523 8.55773C11.0915 8.46254 11.1581 8.38111 11.2435 8.3237C11.329 8.26628 11.4295 8.23546 11.5325 8.23511C11.6012 8.23511 11.6692 8.24864 11.7326 8.27493C11.7961 8.30121 11.8538 8.33974 11.9023 8.38831C11.9509 8.43688 11.9894 8.49454 12.0157 8.558C12.042 8.62146 12.0555 8.68948 12.0555 8.75816V8.75816ZM11.2762 9.62992C11.2758 9.73296 11.245 9.83359 11.1875 9.9191C11.13 10.0046 11.0484 10.0712 10.9531 10.1103C10.8578 10.1495 10.753 10.1596 10.652 10.1392C10.551 10.1189 10.4582 10.0691 10.3855 9.99606C10.3128 9.92305 10.2634 9.83012 10.2434 9.72902C10.2235 9.62793 10.234 9.52319 10.2735 9.42804C10.3131 9.33289 10.38 9.2516 10.4657 9.19443C10.5514 9.13727 10.6522 9.1068 10.7552 9.10687C10.8238 9.10686 10.8917 9.12041 10.9551 9.14672C11.0184 9.17303 11.0759 9.21159 11.1243 9.26019C11.1727 9.30879 11.2111 9.36646 11.2371 9.42991C11.2632 9.49336 11.2765 9.56133 11.2762 9.62992V9.62992ZM10.8616 11.2312C10.8617 11.3343 10.8311 11.4351 10.7739 11.5209C10.7167 11.6066 10.6353 11.6735 10.54 11.713C10.4448 11.7525 10.3399 11.7629 10.2388 11.7428C10.1376 11.7228 10.0447 11.6731 9.97178 11.6002C9.89883 11.5274 9.84915 11.4345 9.82901 11.3333C9.80886 11.2322 9.81917 11.1274 9.85861 11.0321C9.89806 10.9368 9.96488 10.8554 10.0506 10.7981C10.1363 10.7408 10.2372 10.7102 10.3403 10.7102C10.4785 10.7102 10.611 10.7651 10.7088 10.8628C10.8065 10.9604 10.8615 11.093 10.8616 11.2312V11.2312ZM9.34578 11.6273C9.34543 11.7303 9.31457 11.8309 9.25707 11.9164C9.19958 12.0019 9.11804 12.0685 9.02276 12.1077C8.92747 12.1469 8.82271 12.1569 8.7217 12.1366C8.62069 12.1163 8.52797 12.0665 8.45523 11.9935C8.3825 11.9206 8.33303 11.8277 8.31305 11.7266C8.29308 11.6255 8.3035 11.5208 8.34301 11.4256C8.38252 11.3305 8.44933 11.2492 8.53503 11.192C8.62072 11.1348 8.72144 11.1042 8.82447 11.1042C8.89309 11.1042 8.96104 11.1177 9.02442 11.144C9.08781 11.1703 9.14537 11.2088 9.19381 11.2574C9.24225 11.306 9.28061 11.3637 9.30669 11.4272C9.33277 11.4907 9.34605 11.5587 9.34578 11.6273V11.6273ZM7.12594 12.0231C7.12594 12.1265 7.09527 12.2276 7.03779 12.3136C6.98032 12.3997 6.89863 12.4667 6.80305 12.5063C6.70748 12.5459 6.60231 12.5562 6.50085 12.5361C6.39938 12.5159 6.30619 12.4661 6.23304 12.3929C6.15989 12.3198 6.11007 12.2266 6.08989 12.1251C6.06971 12.0236 6.08006 11.9185 6.11965 11.8229C6.15924 11.7273 6.22628 11.6456 6.3123 11.5882C6.39831 11.5307 6.49944 11.5 6.60289 11.5C6.67164 11.4998 6.73976 11.5131 6.80333 11.5393C6.86689 11.5656 6.92464 11.6041 6.97326 11.6527C7.02187 11.7013 7.06039 11.7591 7.0866 11.8226C7.1128 11.8862 7.12617 11.9543 7.12594 12.0231V12.0231ZM5.37895 12.544C5.37902 12.6472 5.34849 12.748 5.29124 12.8338C5.23398 12.9196 5.15257 12.9864 5.0573 13.0259C4.96202 13.0654 4.85718 13.0758 4.75602 13.0557C4.65486 13.0356 4.56195 12.9859 4.48902 12.913C4.41609 12.8401 4.36643 12.7471 4.34633 12.646C4.32623 12.5448 4.33658 12.44 4.37608 12.3447C4.41558 12.2494 4.48245 12.168 4.56823 12.1108C4.65401 12.0535 4.75485 12.023 4.85799 12.0231C4.9264 12.0231 4.99415 12.0365 5.05735 12.0627C5.12056 12.0889 5.17799 12.1273 5.22636 12.1756C5.27474 12.224 5.31311 12.2814 5.33929 12.3447C5.36547 12.4079 5.37895 12.4756 5.37895 12.544ZM3.77213 11.3047C3.7722 11.4079 3.74168 11.5087 3.68442 11.5945C3.62716 11.6803 3.54575 11.7471 3.45048 11.7866C3.35521 11.8261 3.25036 11.8365 3.14921 11.8164C3.04805 11.7963 2.95513 11.7466 2.8822 11.6737C2.80927 11.6008 2.75962 11.5079 2.73951 11.4067C2.71941 11.3055 2.72976 11.2007 2.76926 11.1054C2.80876 11.0102 2.87563 10.9287 2.96142 10.8715C3.0472 10.8142 3.14804 10.7837 3.25117 10.7838C3.31959 10.7838 3.38733 10.7972 3.45053 10.8234C3.51374 10.8496 3.57117 10.888 3.61955 10.9364C3.66792 10.9847 3.70629 11.0422 3.73248 11.1054C3.75866 11.1686 3.77213 11.2363 3.77213 11.3047V11.3047ZM2.51402 11.2155C2.51367 11.3185 2.4828 11.4191 2.42529 11.5046C2.36778 11.5902 2.28622 11.6567 2.19092 11.6959C2.09561 11.7351 1.99083 11.7451 1.88981 11.7248C1.78879 11.7044 1.69607 11.6546 1.62335 11.5816C1.55063 11.5086 1.50118 11.4157 1.48125 11.3146C1.46131 11.2135 1.47179 11.1087 1.51135 11.0136C1.55091 10.9184 1.61778 10.8371 1.70352 10.78C1.78926 10.7228 1.89001 10.6923 1.99306 10.6924C2.06165 10.6924 2.12956 10.706 2.1929 10.7323C2.25625 10.7586 2.31377 10.7971 2.36217 10.8457C2.41058 10.8943 2.44891 10.952 2.47496 11.0155C2.50102 11.0789 2.51429 11.1469 2.51402 11.2155ZM1.24195 9.96014C1.24161 10.0632 1.21074 10.1638 1.15325 10.2493C1.09576 10.3348 1.01422 10.4013 0.918935 10.4405C0.823649 10.4797 0.718886 10.4898 0.617877 10.4695C0.516868 10.4492 0.424143 10.3994 0.351411 10.3264C0.278679 10.2534 0.229203 10.1605 0.209229 10.0595C0.189255 9.95838 0.199679 9.85365 0.239187 9.7585C0.278694 9.66334 0.345512 9.58203 0.431202 9.52482C0.516893 9.46762 0.617614 9.43709 0.720644 9.43709C0.789333 9.43732 0.857303 9.45107 0.920675 9.47757C0.984047 9.50406 1.04158 9.54278 1.08999 9.59152C1.1384 9.64025 1.17673 9.69804 1.20281 9.76159C1.22888 9.82513 1.24218 9.89319 1.24195 9.96188V9.96014ZM1.37829 7.40939C1.37795 7.51243 1.34707 7.61306 1.28957 7.69857C1.23206 7.78408 1.1505 7.85062 1.0552 7.8898C0.95989 7.92898 0.85511 7.93904 0.754092 7.9187C0.653073 7.89836 0.560348 7.84854 0.48763 7.77553C0.414912 7.70252 0.365463 7.60959 0.345528 7.50849C0.325594 7.40739 0.336068 7.30266 0.375629 7.20751C0.41519 7.11236 0.482063 7.03106 0.567799 6.9739C0.653535 6.91674 0.754289 6.88627 0.857335 6.88633C0.926072 6.88633 0.994131 6.89993 1.05759 6.92636C1.12105 6.95278 1.17865 6.99149 1.22707 7.04027C1.2755 7.08906 1.31379 7.14694 1.33975 7.21059C1.3657 7.27424 1.3788 7.34239 1.37829 7.41113V7.40939ZM1.2151 3.67828C1.2151 3.78139 1.18453 3.88218 1.12725 3.9679C1.06996 4.05363 0.988547 4.12045 0.89329 4.15991C0.798034 4.19936 0.693216 4.20969 0.592092 4.18957C0.490968 4.16946 0.39808 4.11981 0.325173 4.0469C0.252267 3.974 0.202617 3.88111 0.182502 3.77998C0.162388 3.67886 0.172711 3.57404 0.212168 3.47878C0.251624 3.38353 0.318442 3.30211 0.404171 3.24483C0.489899 3.18755 0.590689 3.15697 0.693794 3.15697C0.762325 3.15693 0.830192 3.1704 0.893506 3.19663C0.956821 3.22285 1.01434 3.26131 1.06276 3.3098C1.11119 3.35829 1.14957 3.41586 1.17571 3.47921C1.20186 3.54256 1.21524 3.61045 1.2151 3.67898V3.67828ZM2.01258 2.20502C2.01279 2.30817 1.98239 2.40906 1.92524 2.49493C1.86808 2.58079 1.78673 2.64777 1.6915 2.68739C1.59626 2.72701 1.49141 2.73748 1.39021 2.71748C1.28902 2.69749 1.19604 2.64792 1.12302 2.57505C1.05001 2.50219 1.00026 2.4093 0.98006 2.30815C0.959861 2.207 0.970123 2.10213 1.00955 2.00681C1.04897 1.91149 1.11579 1.83001 1.20154 1.77268C1.28729 1.71536 1.38813 1.68475 1.49127 1.68475C1.62947 1.68475 1.76202 1.73963 1.85977 1.83732C1.95753 1.93501 2.01249 2.06752 2.01258 2.20571V2.20502ZM3.52525 1.82877C3.52566 1.93231 3.49534 2.03364 3.43812 2.11993C3.3809 2.20622 3.29935 2.27358 3.20382 2.31349C3.10828 2.3534 3.00304 2.36406 2.90144 2.34412C2.79984 2.32417 2.70645 2.27452 2.63309 2.20145C2.55973 2.12839 2.50971 2.03519 2.48935 1.93367C2.469 1.83216 2.47924 1.72688 2.51876 1.63118C2.55829 1.53549 2.62533 1.45367 2.71139 1.39611C2.79745 1.33854 2.89866 1.30781 3.0022 1.30781C3.14056 1.30781 3.27328 1.36263 3.37131 1.46027C3.46935 1.55791 3.5247 1.69041 3.52525 1.82877V1.82877ZM6.1984 1.48007C6.19805 1.58311 6.16717 1.68374 6.10967 1.76925C6.05216 1.85476 5.9706 1.9213 5.8753 1.96048C5.77999 1.99966 5.67521 2.00972 5.57419 1.98938C5.47317 1.96904 5.38045 1.91921 5.30773 1.8462C5.23501 1.77319 5.18556 1.68027 5.16563 1.57917C5.14569 1.47807 5.15617 1.37333 5.19573 1.27818C5.23529 1.18304 5.30216 1.10175 5.3879 1.04458C5.47364 0.987418 5.57439 0.956946 5.67743 0.957015C5.74588 0.957106 5.81363 0.970683 5.87683 0.99697C5.94002 1.02326 5.99741 1.06174 6.04573 1.11022C6.09405 1.15869 6.13234 1.21622 6.15841 1.2795C6.18449 1.34278 6.19784 1.41058 6.1977 1.47902L6.1984 1.48007ZM7.29471 1.39533C7.29471 1.49845 7.26413 1.59926 7.20683 1.68499C7.14954 1.77073 7.0681 1.83755 6.97282 1.87699C6.87754 1.91644 6.77271 1.92674 6.67157 1.9066C6.57044 1.88646 6.47755 1.83677 6.40466 1.76383C6.33177 1.69089 6.28215 1.59797 6.26207 1.49682C6.24199 1.39567 6.25237 1.29085 6.29188 1.19559C6.33139 1.10034 6.39826 1.01895 6.48403 0.961711C6.56981 0.904471 6.67063 0.873955 6.77375 0.874024C6.91168 0.874208 7.0439 0.929081 7.14143 1.02661C7.23896 1.12414 7.29383 1.25636 7.29402 1.39429L7.29471 1.39533ZM8.88758 1.80506C8.88765 1.9081 8.85718 2.00886 8.80001 2.09459C8.74285 2.18033 8.66156 2.2472 8.56641 2.28676C8.47126 2.32632 8.36652 2.3368 8.26542 2.31686C8.16433 2.29693 8.0714 2.24748 7.99839 2.17476C7.92538 2.10204 7.87556 2.00932 7.85522 1.9083C7.83488 1.80728 7.84494 1.7025 7.88411 1.60719C7.92329 1.51189 7.98984 1.43033 8.07535 1.37282C8.16085 1.31532 8.26149 1.28444 8.36453 1.2841C8.50273 1.28382 8.63538 1.33843 8.73333 1.43592C8.83128 1.53341 8.88652 1.66581 8.88689 1.80401L8.88758 1.80506ZM7.17058 6.91737V7.15065C7.17058 7.1657 7.16761 7.1806 7.16184 7.1945C7.15607 7.2084 7.14761 7.22102 7.13695 7.23165C7.1263 7.24227 7.11365 7.25069 7.09973 7.25642C7.08581 7.26215 7.0709 7.26507 7.05585 7.26503H5.3385C5.32345 7.26507 5.30854 7.26215 5.29462 7.25642C5.2807 7.25069 5.26805 7.24227 5.2574 7.23165C5.24674 7.22102 5.23828 7.2084 5.23251 7.1945C5.22675 7.1806 5.22378 7.1657 5.22378 7.15065V6.91737C5.22378 6.90232 5.22675 6.88742 5.23251 6.87352C5.23828 6.85962 5.24674 6.847 5.2574 6.83637C5.26805 6.82575 5.2807 6.81733 5.29462 6.8116C5.30854 6.80587 5.32345 6.80295 5.3385 6.803H7.05515C7.07026 6.80286 7.08525 6.80571 7.09925 6.8114C7.11324 6.81708 7.12598 6.82549 7.13671 6.83612C7.14744 6.84676 7.15596 6.85941 7.16177 6.87336C7.16758 6.8873 7.17058 6.90226 7.17058 6.91737V6.91737ZM6.08681 6.05747H6.30824C6.33999 6.05756 6.37041 6.07024 6.39283 6.09273C6.41525 6.11521 6.42784 6.14567 6.42784 6.17742L6.40831 7.81423C6.40831 7.88048 6.38251 7.9035 6.30963 7.94011L6.07356 8.04821C6.0578 8.04821 6.04219 8.04509 6.02763 8.03904C6.01307 8.03298 5.99986 8.02411 5.98874 8.01293C5.97762 8.00175 5.96883 7.98848 5.96286 7.97389C5.95689 7.9593 5.95387 7.94367 5.95396 7.92791L5.96721 6.17742C5.96721 6.14567 5.9798 6.11521 6.00222 6.09273C6.02464 6.07024 6.05506 6.05756 6.08681 6.05747V6.05747Z" fill="white"/>
</svg>
